<svg width="2040" height="198" viewBox="0 0 2040 198" fill="none" xmlns="http://www.w3.org/2000/svg">
<g clip-path="url(#clip0_104_2)">
<mask id="mask0_104_2" style="mask-type:luminance" maskUnits="userSpaceOnUse" x="0" y="-84" width="2119" height="282">
<path d="M2119 -83.2105H0V197.211H2119V-83.2105Z" fill="#555555"/>
</mask>
<g mask="url(#mask0_104_2)">
<path fill-rule="evenodd" clip-rule="evenodd" d="M759.81 -0.180481H792.88V70.8821C797.294 62.2144 810.969 43.6799 831.665 43.6799C858.295 43.6799 878.701 71.7826 878.701 107.876C878.701 141.643 856.992 169.595 831.304 169.595C810.452 169.595 800.32 155.272 793.051 144.997L792.987 144.907V168.17H759.267V153.575H776.018V14.3396H759.81V-0.180481ZM792.88 116.13C792.88 136.466 808.727 154.513 826.817 154.513C847.08 154.513 860.068 135.527 860.068 106.075C860.068 77.7477 847.08 58.3124 827.505 58.3124C810.318 58.3124 792.916 78.198 792.916 95.5311V116.13H792.88ZM414.313 88.0283H360.548L360.62 88.1405V103.899H396.801C396.822 108.265 396.446 112.624 395.68 116.918C391.301 138.379 372.777 155.075 353.167 155.075C326.175 155.075 306.132 126.186 306.132 87.5407C306.132 37.7514 333.665 20.8302 352.842 20.8302C359.264 21.0211 365.565 22.7005 371.282 25.7454C376.998 28.7903 381.984 33.1234 385.875 38.4268C390.24 44.1867 393.261 50.9154 394.703 58.0871H411.672V6.8355H395.354V31.7109C381.28 8.18619 363.876 3.8339 349.115 3.8339C313.187 3.8339 285.182 41.3535 285.182 88.4022C285.182 135.452 313.367 172.035 349.549 172.035C362.687 172.07 375.382 167.104 385.223 158.076C389.919 153.863 393.811 148.772 396.692 143.069V168.17H414.313V88.0283ZM0.434177 6.83566H59.6992C86.1479 6.83566 96.0616 7.73612 103.551 11.1504C110.754 14.5209 116.847 20.0053 121.078 26.9264C125.309 33.8475 127.492 41.9022 127.359 50.0956C127.359 66.3035 122.293 74.2954 107.314 82.7377C124.934 90.2421 133.075 101.722 133.075 122.958C133.075 149.936 113.031 167.983 83.0724 167.983H0V141.907H12.1208V33.0993H0.434177V6.83566ZM43.8519 33.0993V72.2328H74.4613C87.7037 72.2328 96.749 63.7903 96.749 51.6714C96.749 40.9409 86.582 33.0993 72.3628 33.0993H43.8519ZM43.8519 97.5205V141.907H76.4152C90.4536 141.907 101.308 132.338 101.308 119.995C101.308 106.525 90.4536 97.4832 73.5567 97.4832L43.8519 97.5205ZM263.147 127.761C257.865 154.287 236.482 170.721 207.861 170.721C174.793 170.721 150.551 144.007 150.551 106.525C150.551 69.0438 175.009 42.0667 208.08 42.0667C217.039 41.9406 225.884 44.1444 233.81 48.4766C241.736 52.809 248.489 59.1315 253.451 66.8674C264.13 83.7363 264.688 99.6969 265.116 111.964L265.137 112.565H180.074C182.969 144.345 203.014 145.921 208.513 145.921C220.2 145.921 227.906 140.218 232.538 127.649L263.147 127.761ZM232.972 91.6675C230.982 76.1338 222.118 67.6931 208.08 67.6931C195.271 67.6931 185.394 76.584 181.631 91.6675H232.972ZM546.448 168.17H513.233V146.295C503.791 161.603 490.982 170.271 473.434 170.271C451.4 170.271 435.335 154.513 435.335 133.276C435.335 109.94 455.163 98.3089 501.873 93.7302C502.787 93.5978 504.844 93.3875 507.289 93.1382L507.307 93.1366C509.009 92.9622 510.906 92.7674 512.726 92.568V79.9989C512.726 66.0791 502.379 57.487 486.061 57.487C468.875 57.487 461.168 63.4527 457.659 79.2106H439.822C442.463 66.8674 445.972 60.4511 453.028 54.0727C462.09 46.8237 473.321 43.1056 484.759 43.5672C508.999 43.5672 529.695 55.2359 529.695 86.0763V153.613H546.448V168.17ZM513.016 105.137L502.162 106.525C465.981 111.102 453.896 117.781 453.896 133.464C454.007 136.678 454.733 139.839 456.027 142.762C457.324 145.684 459.165 148.313 461.447 150.492C463.728 152.673 466.403 154.363 469.316 155.465C472.232 156.568 475.328 157.06 478.427 156.914C499.375 156.914 513.016 136.353 513.016 125.134V105.137ZM633.21 42.7793C611.646 42.7793 601.045 59.6629 595.763 68.1418V68.067V44.7302H561.39V59.3629H578.577V153.575H561.39V168.17H612.442V153.575H595.691V92.3421C595.691 81.1611 608.68 57.6369 626.987 57.6369C638.458 57.6369 643.956 64.4654 643.956 79.773V168.17H677.895V153.575H660.925V91.4043C660.925 83.2253 671.707 57.6369 692.187 57.6369C703.656 57.6369 709.156 65.403 709.156 82.5118V168.17H742.262V153.575H725.944V76.2085C725.944 54.9355 715.415 42.8542 697.324 42.8542C687.904 42.8998 678.85 46.655 671.997 53.3597C667.346 57.5521 663.535 62.6513 660.781 68.3677C657.887 51.221 648.877 42.7793 633.21 42.7793ZM925.81 -0.180481H892.125V14.2269H908.841V153.613H891.907V167.983H941.693V153.613H925.81V-0.180481ZM1056.21 134.176C1054.53 141.114 1051.29 147.541 1046.76 152.936C1042.18 158.537 1036.46 163.016 1030.01 166.052C1023.56 169.089 1016.54 170.606 1009.46 170.495C977.295 170.495 954.828 144.457 954.828 106.975C954.828 70.8805 977.295 43.1918 1006.6 43.1918C1035.91 43.1918 1058.85 66.8674 1058.85 109.939H973.28C974.835 127.987 978.816 138.041 986.957 146.295C989.888 149.283 993.367 151.629 997.19 153.197C1001.01 154.762 1005.1 155.516 1009.21 155.413C1022.88 155.413 1031.24 148.997 1037.21 134.176H1056.21ZM1039.27 96.6575C1037.94 81.3496 1034.64 72.9074 1027.81 66.0417C1022.44 61.0158 1015.42 58.3281 1008.2 58.5373C993.722 58.5373 981.963 68.592 976.681 84.8003C975.53 88.6826 974.718 92.663 974.257 96.6949L1039.27 96.6575ZM1168.15 6.83566H1130.92L1087.69 141.907H1075.78V168.17H1111.96L1122.09 133.201H1176.62L1186.75 168.17H1222.57V141.907H1210.88L1168.15 6.83566ZM1128.93 108.138L1149.63 36.8513L1169.92 108.138H1128.93ZM1221.7 45.7433H1268.85V69.4925H1256.94L1273.26 141.494L1292.65 45.7433H1323.05L1342.66 140.33L1358.32 69.4925H1346.85V45.7433H1394.25V69.4925H1384.08L1358.76 167.983H1327.46L1307.85 83.001L1289.36 167.983H1257.63L1231.62 69.4925H1221.7V45.7433ZM1516 144.232H1505.83V85.9641C1505.83 58.0871 1488.18 42.7793 1455.61 42.7793C1427.61 42.7793 1408.65 58.5373 1407.13 82.9994L1435.75 83.8999C1436.44 72.4571 1444.79 65.403 1456.92 65.403C1473.99 65.403 1478.41 70.1686 1478.63 88.9288C1440.96 92.568 1401.96 96.469 1401.96 132.338C1401.96 154.025 1420.01 170.495 1443.6 170.495C1458.15 170.495 1467.16 166.143 1479.28 153.574V168.17H1516V144.232ZM1432.35 132.338C1432.35 115.418 1450.4 112.903 1478.19 110.164V122.057C1478.23 125.647 1477.56 129.207 1476.24 132.525C1474.92 135.842 1472.96 138.847 1470.49 141.363C1468.02 143.877 1465.09 145.851 1461.87 147.163C1458.65 148.475 1455.2 149.098 1451.74 148.997C1440.06 148.997 1432.35 142.394 1432.35 132.338ZM1576.68 64.6906C1584.39 49.1574 1592.99 42.7793 1606.2 42.7793C1610.66 42.8467 1615.08 43.3747 1619.45 44.3551V72.9448C1614.69 71.848 1609.83 71.3074 1604.97 71.3308C1589.51 71.3308 1576.54 82.5881 1576.54 96.6949V144.232H1590.64V168.17H1536.37V144.232H1547.8V69.4925H1536.59V45.7431H1576.68V64.6906ZM1682.66 170.721C1711.31 170.721 1732.69 154.287 1737.97 127.761L1707.32 127.649C1702.69 140.218 1695 145.921 1683.3 145.921C1677.8 145.921 1657.76 144.345 1654.91 112.565H1739.96L1739.95 111.964C1739.51 99.6969 1738.95 83.7363 1728.28 66.8674C1723.31 59.1284 1716.55 52.8043 1708.62 48.4719C1700.68 44.1398 1691.83 41.9375 1682.88 42.0664C1649.88 42.0664 1625.38 69.0422 1625.38 106.525C1625.38 144.007 1649.63 170.721 1682.66 170.721ZM1682.83 67.6916C1696.73 67.6916 1705.78 76.1338 1707.76 91.6675H1656.42C1660.14 76.584 1670.07 67.6916 1682.83 67.6916ZM1754.14 152.411H1769.49V167.983H1754.14V152.411ZM1828.25 74.484C1804.19 74.484 1787.55 93.8065 1787.55 121.833C1787.55 150.536 1803.72 170.045 1827.92 170.045C1852.13 170.045 1868.96 150.386 1868.96 121.833C1868.96 94.4811 1852.3 74.484 1828.25 74.484ZM1854.62 121.495C1854.62 144.571 1844.56 158.602 1827.75 158.602H1827.7C1811.57 158.602 1801.84 144.571 1801.84 122.171C1801.84 99.7717 1811.42 85.9267 1827.75 85.9267C1844.06 85.9267 1854.62 99.7717 1854.62 121.495ZM1905.71 97.0703C1908 90.8496 1911.6 85.235 1916.25 80.6361C1920.73 76.6308 1926.45 74.4107 1932.37 74.3702C1935.6 74.4855 1938.79 74.8236 1941.97 75.3844V88.8914C1938.87 88.1919 1935.72 87.7899 1932.56 87.6902C1908.5 87.6902 1905.71 113.503 1905.71 114.893V157.214H1920.87V168.17H1880.32V157.214H1893.01V86.7898H1879.8V75.872H1905.71V97.0703ZM1988.31 161.154C1998.05 161.154 2006.94 157.214 2015.01 145.434L2015.15 145.245V164.381C2015.15 177.699 2006.09 185.729 1991.1 185.729C1979.22 185.729 1972.98 181.977 1967.69 170.721H1953.22C1954.15 173.857 1955.35 176.897 1956.83 179.801C1962.77 190.532 1975.47 197.21 1989.94 197.21C2014.03 197.21 2027.71 184.566 2027.71 162.354V86.7898H2040.05V75.872H2015.01V92.2673C2010.39 85.2521 2003.14 74.484 1986.83 74.484C1966.85 74.484 1952.38 92.1178 1952.38 116.881C1952.38 143.031 1967.04 161.154 1988.31 161.154ZM1989.69 85.4391C2003.14 85.4391 2015.01 99.7717 2015.01 109.864H2015.09V126.448C2015.09 137.216 2003.55 150.386 1990.52 150.386C1975.36 150.386 1966.31 137.741 1966.31 117.744C1966.31 97.7449 1975.22 85.4391 1989.69 85.4391Z" fill="white"/>
</g>
</g>
<defs>
<clipPath id="clip0_104_2">
<rect width="2040" height="198" fill="#555555"/>
</clipPath>
</defs>
</svg>
