<svg width="44" height="28" viewBox="0 0 44 28" fill="none" xmlns="http://www.w3.org/2000/svg">
<path d="M43.763 25.202C41.966 21.968 37.337 18.082 35.426 16.391C34.903 15.928 34.847 15.127 35.323 14.615C38.97 10.696 41.887 6.193 42.891 3.472C43.334 2.27 42.417 0.999997 41.125 0.999997H37.372C36.135 0.999997 35.411 1.444 35.066 2.151C32.035 8.362 29.435 11.05 27.615 12.621C26.596 13.501 25.007 12.772 25.007 11.433C25.007 8.853 25.007 5.518 25.007 3.153C25.007 2.006 24.069 1.078 22.912 1.078L16.056 0.999997C15.193 0.999997 14.7 1.977 15.218 2.662L16.35 4.287C16.776 4.85 17.006 5.535 17.006 6.238L17 13.556C17 14.829 15.457 15.451 14.541 14.559C11.442 11.541 8.75301 5.378 7.78501 2.431C7.50501 1.578 6.70601 1.002 5.80001 0.999997L2.10301 0.990997C0.71601 0.990997 -0.29799 2.306 0.0790099 3.63C3.45701 15.487 10.388 26.767 22.74 27.99C23.957 28.11 25.007 27.13 25.007 25.917V22.071C25.007 20.968 25.872 20.02 26.984 19.992C27.023 19.991 27.062 19.991 27.101 19.991C30.368 19.991 34.027 24.746 35.307 26.97C35.675 27.61 36.363 28 37.107 28H42.08C43.531 28 44.462 26.461 43.763 25.202Z" fill="white"/>
</svg>
