<svg xmlns:xlink="http://www.w3.org/1999/xlink" width="44" height="24" viewBox="0 0 44 24" fill="none" xmlns="http://www.w3.org/2000/svg"><path fill-rule="evenodd" clip-rule="evenodd" d="M1.89349 6.00094V7.89207L1.21463 7.96204C1.1672 8.05549 1.12552 8.14942 1.08959 8.2424C1.04216 8.31331 1.01198 8.38234 1 8.45278C1 8.51055 1.03018 8.56925 1.08959 8.62842C1.16097 8.69792 1.26254 8.73314 1.39381 8.73314C1.45369 8.73314 1.51885 8.7153 1.59024 8.68102H1.80486L2.1086 9.20604L2.68063 8.97828H7.48826L7.73786 9.27648L8.02436 9.0661H11.4556L11.5092 9.3643H16.9066L17.5495 9.69679C17.7043 9.79024 17.8595 9.87148 18.0142 9.94192C18.181 9.98842 18.294 10.0119 18.3539 10.0119C18.4732 10.0119 18.5863 9.99452 18.6931 9.95883C18.765 9.94803 18.8129 9.91891 18.8359 9.87101L19.0864 9.71416H21.5346C21.5346 10.3092 21.3975 10.9225 21.1235 11.5541C20.8854 12.1021 20.5098 12.7093 19.9977 13.3748C19.4731 14.0529 18.7228 14.7301 17.746 15.4073C17.7694 15.4073 17.8768 15.542 18.0669 15.8102C18.2222 16.0906 18.4191 16.3944 18.6567 16.7212C18.8713 17.0946 19.1396 17.5215 19.4611 18C20.1764 17.521 20.8552 16.9495 21.4991 16.2831C22.0587 15.7106 22.6369 14.9921 23.2324 14.1285C23.828 13.287 24.3219 12.2829 24.7157 11.115C24.7631 11.0685 24.8288 11.0746 24.9126 11.1329C24.9725 11.1681 25.0199 11.2089 25.0558 11.2554L25.5915 11.1681C25.8655 11.3198 26.1515 11.425 26.4495 11.4832C26.6881 11.5541 26.9684 11.5705 27.2893 11.5358C27.6228 11.5006 27.9447 11.3602 28.2547 11.115C28.2787 11.115 28.3912 11.2033 28.5944 11.378C28.7965 11.5541 29.0169 11.7814 29.255 12.0608C29.5046 12.3534 29.7375 12.6807 29.9521 13.0423C30.1787 13.3804 30.3339 13.7251 30.4168 14.0759C30.4168 14.0994 30.5241 14.1454 30.7383 14.2154C30.9405 14.2971 31.1795 14.3502 31.4536 14.3727C31.7151 14.3849 31.9657 14.3267 32.2033 14.1971C32.4304 14.0581 32.5727 13.7772 32.6331 13.3569C32.6211 13.31 32.5315 13.1235 32.3643 12.7967C32.2215 12.4929 32.0486 12.1721 31.8454 11.8326C31.6553 11.4823 31.4761 11.161 31.3094 10.8694C31.1307 10.589 31.0233 10.4486 30.9879 10.4486C31.0233 10.4486 31.1249 10.3796 31.2911 10.2387C31.4344 10.0988 31.5896 10.0457 31.7568 10.0814C31.7918 10.0931 31.9111 10.1335 32.1137 10.2035C32.3284 10.2622 32.5962 10.35 32.9181 10.467C33.2405 10.5839 33.597 10.7121 33.9903 10.852C34.3961 10.9924 34.8004 11.1324 35.2062 11.2728C36.1591 11.6114 37.2256 11.9969 38.4051 12.429L42.6402 13.7956L43 8.83881C42.8093 8.69839 42.5889 8.5932 42.3389 8.52323C42.1118 8.44104 41.8497 8.37718 41.5522 8.33069C41.2777 8.27198 40.9739 8.27762 40.6405 8.34759C40.6405 8.37107 40.3784 8.36497 39.8548 8.33022C39.3302 8.27151 38.7467 8.22502 38.1028 8.19027L35.5114 8.03248C35.3447 8.07991 35.178 8.13157 35.0112 8.19027C34.7133 8.29499 34.4632 8.34759 34.261 8.34759C34.1896 8.34759 34.0401 8.31331 33.8135 8.2424C33.5639 8.19544 33.3076 8.13157 33.0451 8.04986C32.7476 7.97942 32.4141 7.8808 32.0447 7.75259L30.4183 6.38555L30.2755 6.52597H20.3388C20.3388 6.50295 20.3024 6.47384 20.231 6.43909C20.1955 6.4034 20.1299 6.37381 20.0346 6.3508C19.9397 6.32779 19.7969 6.31511 19.6062 6.31511L11.9567 6.38508C11.8144 6.4203 11.6702 6.46726 11.5274 6.5255C11.4196 6.56072 11.3008 6.59547 11.17 6.63069C11.0507 6.68939 10.9434 6.72414 10.8481 6.73588H7.64923C7.48251 6.94627 7.32106 7.13881 7.16679 7.31444C7.036 7.45439 6.89227 7.60044 6.73801 7.75259C6.60722 7.8808 6.49368 7.95124 6.39882 7.96204H3.59281L3.37818 7.89207C3.23541 7.6474 3.13385 7.42527 3.07444 7.22663C2.99108 7.06273 2.91347 6.89367 2.84209 6.71851C2.78268 6.5424 2.72902 6.43251 2.68159 6.38508C2.64566 6.22166 2.62793 6.13431 2.62793 6.1221V6H1.89349V6.00094ZM26.3249 9.92502L27.2903 9.94239C27.481 9.93065 27.6477 9.98231 27.7905 10.0997C27.9093 10.2284 27.9696 10.3862 27.9696 10.5731C27.9696 10.7243 27.9093 10.8591 27.7905 10.9755C27.6477 11.0925 27.481 11.1516 27.2903 11.1516H26.3249C26.1462 11.1516 26.0035 11.0925 25.8957 10.9755C25.7884 10.8591 25.7357 10.7243 25.7357 10.5731C25.7357 10.3862 25.7888 10.2284 25.8957 10.0997C26.0035 9.98231 26.1462 9.92502 26.3249 9.92502Z" fill="#BBB9C7"></path></svg>