<?xml version="1.0" encoding="UTF-8"?>
<svg xmlns="http://www.w3.org/2000/svg" fill="white" viewBox="0 0 24 24">
  <path d="m24,4v14c0,2.209-1.791,4-4,4h-2.015s0,0-.001-.002c.836-2.512,2.016-6.892,2.013-11.634l.003-1.846c.264.133.54.24.823.319.589.165,1.177-.265,1.177-.876h0c0-.478-.286-.931-.741-1.076-.326-.104-.627-.276-.888-.5-.299-.256-.668-.384-1.037-.384s-.738.128-1.037.384c-.451.386-1.016.616-1.63.616s-1.179-.23-1.63-.616c-.299-.256-.668-.384-1.037-.384s-.738.128-1.037.384c-.451.386-1.016.616-1.63.616s-1.179-.23-1.63-.616c-.299-.256-.668-.384-1.037-.384s-.738.128-1.037.384l-.014.012c-.637.539-1.616.068-1.616-.767v-1.629C6,1.794,7.794,0,10,0h10c2.209,0,4,1.791,4,4Zm-6.001,6.458c0,4.144-.978,8.03-1.798,10.567-.575,1.779-2.223,2.975-4.1,2.975H3.322c-1.121,0-2.208-.582-2.837-1.52-.581-.864-.695-1.895-.314-2.825.823-2.012,2.356-5.757,2.406-9.17.004-.289.133-.561.353-.748.484-.402,1.22-.73,1.813-.739.621-.01,1.244.196,1.75.616.608.504,1.48.504,2.087,0,.99-.821,2.428-.821,3.418,0,.607.504,1.479.504,2.087,0,.511-.424,1.141-.629,1.767-.615.588.013,1.257.284,1.737.682.246.18.396.461.409.766v.012Zm-7.521,2.663c-.37-.201-.83-.149-1.146.135l-1.5,1.346c-.411.368-.445,1.001-.076,1.412.238.266.585.374.916.317-.17,1.227-.383,2.568-.645,3.353-.175.524.108,1.091.632,1.265.105.035.212.052.316.052.419,0,.809-.265.949-.684.399-1.198,1.004-5.781,1.064-6.16.066-.418-.138-.833-.51-1.035Z"/>
</svg>
