<?xml version="1.0" encoding="UTF-8"?>
<svg xmlns="http://www.w3.org/2000/svg" fill="white" id="Layer_1" data-name="Layer 1" viewBox="0 0 24 24">
  <path d="m20.652,18.266s1.848,2.234,1.848,3.234c0,.64-.244,1.28-.732,1.768s-1.128.732-1.768.732c-.64,0-1.28-.244-1.768-.732s-.732-1.128-.732-1.768c0-1,1.848-3.234,1.848-3.234.362-.354.942-.354,1.304,0ZM15,2c.552,0,1-.447,1-1s-.448-1-1-1H5c-.552,0-1,.447-1,1s.448,1,1,1h4v3H1c-.552,0-1,.447-1,1v6c0,.553.448,1,1,1h10V2h4Zm0,3h-2v8h2c.551,0,1,.448,1,1,0,1.103.897,2,2,2h4c1.103,0,2-.897,2-2,0-4.963-4.038-9-9-9Z"/>
</svg>
