<svg id="Layer_1" viewBox="0 0 24 24" xmlns="http://www.w3.org/2000/svg" data-name="Layer 1"><path fill="#ce203d" d="m18.593 7.763c-1.392-1.375-2.593-2.562-2.593-5.763 0-.284-.121-.554-.331-.744-.211-.189-.493-.278-.774-.251-2.385.253-6.895 2.041-6.895 6.995 0 .199.121 3.685-.488 4.315-.088.091-.218.185-.512.185-.182 0-.301-.052-.422-.187-.589-.649-.695-2.56-.583-3.709.025-.257-.05-.503-.195-.697-.062-.083-.138-.158-.227-.22-.352-.246-.817-.239-1.16.008-.146.106-.266.252-.34.429l-.179.431c-.622 1.482-1.395 3.328-1.394 4.945.003 5.948 3.554 9.5 9.5 9.5 6.126 0 9.5-3.196 9.5-9 0-3.367-1.544-4.892-2.907-6.237z"/></svg>