<?xml version="1.0" encoding="UTF-8"?>
<svg xmlns="http://www.w3.org/2000/svg" fill="white" viewBox="0 0 24 24">
  <path d="M19.627,13.005h-.001c-.148,0-.298-.006-.448-.018-2.023-.172-4.097-.27-6.187-.293v10.205c0,.034-.002,.068-.005,.101,1.842-.042,3.682-.203,5.511-.482,1.071-.164,1.952-.97,2.243-2.054,.519-1.935,.72-5.116,.595-7.735-.538,.181-1.114,.276-1.709,.276Z"/>
  <path d="M11.008,12.694c-2.089,.024-4.161,.123-6.175,.296-.158,.013-.314,.02-.469,.02-.591,0-1.164-.094-1.7-.275-.125,2.617,.077,5.795,.595,7.729,.291,1.083,1.172,1.89,2.243,2.054,1.829,.28,3.669,.44,5.511,.482-.003-.033-.005-.067-.005-.101V12.694Z"/>
  <path d="M22.404,8.073h0s-.079-.276-.079-.276c-.283-.939-1.238-1.655-2.379-1.782-.054-.006-.109-.012-.164-.018,.009-.116,.013-.232,.013-.349,0-2.562-2.085-4.647-4.647-4.647-1.213,0-2.319,.467-3.147,1.231-.828-.764-1.934-1.231-3.147-1.231-2.562,0-4.647,2.085-4.647,4.647,0,.118,.005,.236,.013,.353-.056,.006-.111,.012-.167,.018-1.141,.128-2.096,.845-2.377,1.783l-.079,.275c-.21,.762,.03,1.567,.641,2.153,.549,.527,1.312,.817,2.127,.817,.098,0,.197-.004,.296-.013,2.079-.178,4.21-.279,6.348-.303V5.611h1.983v5.12c2.138,.023,4.27,.123,6.349,.3,.924,.074,1.808-.214,2.424-.805,.61-.586,.849-1.391,.639-2.153ZM7.206,5.647c0-.908,.739-1.647,1.647-1.647,.887,0,1.613,.723,1.646,1.602-1.104,.022-2.203,.068-3.29,.139-.002-.031-.003-.062-.003-.094Zm7.942-1.647c.908,0,1.647,.739,1.647,1.647,0,.031,0,.061-.002,.091-1.087-.07-2.187-.116-3.291-.137,.033-.879,.759-1.602,1.646-1.602Z"/>
</svg>
