<svg xmlns:xlink="http://www.w3.org/1999/xlink" xmlns="http://www.w3.org/2000/svg" width="68" height="67" viewBox="0 0 68 67" fill="none">
<path d="M24.6869 2.09454C22.7242 2.09454 21.115 3.66853 21.0372 5.6134C20.5531 5.37719 20.0171 5.23111 19.4464 5.23111C17.4346 5.23111 15.7844 6.88345 15.7844 8.89523V22.3839C15.3566 21.6719 14.9279 20.9606 14.5004 20.2473C14.0777 19.5422 13.5511 18.8596 12.8237 18.3764C12.0964 17.8933 11.1114 17.6566 10.1268 17.9205C8.18308 18.4413 6.94116 20.4745 7.54642 22.4412L11.873 36.4902C12.7547 39.7809 14.8848 40.9626 15.7844 41.3912V43.9675H28.0055L25.4353 35.6252C24.4729 32.4974 26.4284 29.2737 29.4776 28.4566C30.9937 28.0505 32.4334 28.4048 33.5813 29.0782V21.4597C33.5813 18.4768 35.9024 15.997 38.8198 15.7306V14.1337C38.8198 12.1219 37.1613 10.4717 35.1496 10.4717C34.5872 10.4717 34.0591 10.6098 33.5813 10.8396V9.9461C33.5813 7.93428 31.929 6.28211 29.9172 6.28211C29.3548 6.28211 28.8268 6.4222 28.349 6.65208V5.75649C28.349 3.74471 26.6987 2.09454 24.6869 2.09454ZM44.5776 14.6508C42.6154 14.6508 41.0085 16.2334 40.9299 18.1779C40.4462 17.9409 39.9106 17.7977 39.3391 17.7977C37.3273 17.7977 35.6751 19.448 35.6751 21.4597V34.9423L34.393 32.8056C33.9703 32.1005 33.4438 31.4261 32.7164 30.943C31.989 30.4598 31.0041 30.215 30.0195 30.4788C28.0757 30.9996 26.8317 33.0411 27.437 35.0077L31.7656 49.0567C32.6478 52.3488 34.7764 53.5279 35.6751 53.9557V56.53H55.5677V53.6859C56.0825 53.127 58.7042 50.1576 58.7042 45.0144V34.5436V26.692C58.7042 24.6802 57.054 23.028 55.0422 23.028C54.4798 23.028 53.9518 23.1681 53.474 23.398V22.5024C53.474 20.4906 51.8217 18.8403 49.8099 18.8403C49.2474 18.8403 48.7195 18.9804 48.2416 19.2103V18.3229C48.2416 16.3111 46.5894 14.6508 44.5776 14.6508ZM41.9583 39.7841H51.3782C53.1 39.7841 54.5249 41.1988 54.5249 42.9206V45.0143C54.5249 46.7361 53.1 48.1529 51.3782 48.1529H41.9583C40.2365 48.1529 38.8218 46.7361 38.8218 45.0143V42.9206C38.8218 41.1988 40.2365 39.7841 41.9583 39.7841ZM15.7865 46.0612L15.7844 49.1978C15.7833 50.9196 17.2093 52.3445 18.9311 52.3445H30.9334C30.4606 51.606 30.0414 50.7115 29.7536 49.6374L28.6516 46.0612H15.7865ZM35.6771 58.6238L35.675 61.7602C35.674 63.482 37.1 64.907 38.8218 64.907H52.4291C54.1509 64.907 55.5677 63.482 55.5677 61.7602V58.6238H35.6771Z" fill="#ce203d"/>
</svg>