<?xml version="1.0" encoding="UTF-8"?>
<svg xmlns="http://www.w3.org/2000/svg" fill="white" viewBox="0 0 24 24">
  <path d="M23.338,12.345l-7.702,8.409c-1.894,2.068-4.57,3.246-7.374,3.246H4c-2.209,0-4-1.791-4-4v-5c0-2.209,1.791-4,4-4h7.787c1.374,0,2.46,1.26,2.164,2.685-.193,.926-1.004,1.598-1.94,1.732l-4.162,.583c-.547,.078-.927,.585-.848,1.131,.078,.547,.585,.926,1.131,.848l4.252-.596c2.062-.294,3.617-2.087,3.617-4.17,0-.219-.032-.429-.065-.638l3.541-3.737c.908-1.04,2.665-1.12,3.672-.157,1.052,.958,1.138,2.602,.189,3.665Zm-15.838-3.345v-2c0-.552,.448-1,1-1h0c.552,0,1,.448,1,1v2h3.5c.715,.082,1.391,.336,2,.66v-2.66c0-1.657-1.343-3-3-3h-.899c.662-.39,1.166-.75,1.179-.76,.918-.689,.991-2.086,.029-2.861-.657-.53-1.564-.505-2.231,.013-1.064,.826-1.467,2.244-1.578,2.881-.111-.637-.514-2.054-1.578-2.881-.667-.518-1.573-.543-2.231-.013-.962,.776-.889,2.173,.029,2.861,.013,.01,.517,.37,1.179,.76h-.899c-1.657,0-3,1.343-3,3v2.219c.478-.138,.978-.219,1.5-.219H7.5Z"/>
</svg>
