<svg xmlns:xlink="http://www.w3.org/1999/xlink" xmlns="http://www.w3.org/2000/svg" width="67" height="67" viewBox="0 0 67 67" fill="none">
<path d="M34.9888 42.0883C33.7906 43.2866 33.3658 45.028 34.4543 46.3651C34.7598 46.7469 35.307 46.8106 35.7397 46.556C42.4352 43.0498 42.2027 52.9363 54.4247 59.9459L54.4502 59.9713C56.6646 61.1931 56.8557 62.8096 56.8047 63.5478C56.7792 63.8278 56.9191 64.1206 57.1102 64.3116L58.1794 65.3806C58.5611 65.7625 59.1848 65.7498 59.5539 65.3806L65.3708 59.5639C65.7527 59.182 65.7653 58.5584 65.3835 58.1766L64.3143 57.1075C64.1233 56.9165 63.8306 56.7765 63.5506 56.8019C60.0033 56.9889 60.5242 53.3683 54.7174 47.5614C49.0195 41.8636 43.8927 40.9432 46.5586 35.737C46.8005 35.3171 46.7368 34.7697 46.3549 34.4643C45.0149 33.3678 43.2657 33.8114 42.0911 34.9861L34.9888 42.0883ZM57.9884 58.0112C58.5231 57.4765 59.3885 57.4765 59.9104 57.9984C60.4322 58.5202 60.4323 59.3857 59.8977 59.9204C59.3759 60.4422 58.523 60.4295 58.0012 59.9077C57.4794 59.3857 57.4666 58.5331 57.9884 58.0112Z" fill="#ce203d"/>
<path d="M6.58496 15.8387L7.46936 16.7365L8.56816 16.7365L9.21136 18.4651L10.94 19.1083L11.5966 20.8637L13.3386 21.5069L13.9818 23.2489L15.7238 23.8921L16.367 25.6341L18.109 26.2773L18.7657 28.0193L20.5077 28.6759L21.1509 30.4045L22.8795 31.0477L23.5362 32.8032L25.2782 33.4464L25.2782 34.5452L33.1708 42.4378C33.3986 42.0224 33.7068 41.607 34.082 41.2318L41.184 34.1298C41.5726 33.7412 42.0014 33.433 42.457 33.1918L39.107 29.8418L15.8446 6.5794C15.8446 6.5794 8.98383 0.884404 1.37263 1.3668C0.983759 5.96287 3.75756 12.6361 6.58496 15.8387Z" fill="#ce203d"/>
</svg>