<svg xmlns:xlink="http://www.w3.org/1999/xlink" xmlns="http://www.w3.org/2000/svg" width="68" height="67" viewBox="0 0 68 67" fill="none">
<g clip-path="url(#clip0_12076_30393)">
<path d="M35.7272 24.0152C35.8233 24.0741 35.9154 24.1411 36.0161 24.1905C36.9429 24.6444 37.8709 25.0958 38.7991 25.547C40.1777 26.217 41.5569 26.886 42.9356 27.5559C45.8776 28.9854 48.8195 30.4151 51.7614 31.8447C51.8145 31.8705 51.8676 31.8962 51.9229 31.9229C51.9654 31.8526 51.9986 31.7977 52.0296 31.7464C52.2071 31.7729 54.2392 32.7295 54.6469 32.9761C54.6445 33.0199 54.6418 33.0687 54.6401 33.0984C54.7534 32.9162 54.8657 32.7161 54.9967 32.5291C55.2203 32.2101 55.526 32.0033 55.9098 31.9254C56.0112 31.9048 56.0585 31.8563 56.1018 31.7647C56.4114 31.1101 56.7271 30.4584 57.0449 29.8078C57.1254 29.6431 57.2293 29.4917 57.4217 29.4418C57.5069 29.4197 57.6001 29.3958 57.6842 29.4085C57.8844 29.4387 58.0602 29.5321 58.2121 29.668C58.3145 29.7595 58.3376 29.87 58.2906 29.996C58.2696 30.0524 58.2444 30.1075 58.2183 30.1618C58.027 30.5587 57.835 30.9552 57.6432 31.3518C57.5526 31.5392 57.4618 31.7266 57.4005 31.9282C57.4575 31.823 57.5146 31.7178 57.5703 31.6151C57.7197 31.6367 59.6232 32.5458 59.8713 32.7115C59.8749 32.7229 59.8844 32.7365 59.8812 32.7454C59.7935 32.9852 59.8124 33.233 59.8319 33.479C59.8611 33.846 59.7702 34.1808 59.6035 34.5059C59.2897 35.1179 58.9879 35.736 58.6819 36.352C58.6611 36.3938 58.6466 36.4386 58.65 36.4964C58.6758 36.4595 58.7016 36.4227 58.7354 36.3743C58.8272 36.4119 58.9145 36.4477 59.0112 36.4874C58.9988 36.5529 58.9882 36.6095 58.9734 36.6877C59.2637 36.8282 59.5594 36.9714 59.8765 37.1249C59.7922 37.2991 59.719 37.4559 59.641 37.6102C59.5213 37.847 59.3941 38.08 59.2776 38.3184C58.7793 39.3376 58.2869 40.3598 57.7837 41.3766C57.7073 41.5308 57.5925 41.6685 57.482 41.8027C57.3405 41.9745 57.1415 42.0617 56.9353 42.1316L56.944 42.1294C56.72 42.0999 56.5163 42.0136 56.3147 41.9156C54.713 41.1372 53.1115 40.3585 51.5074 39.5852C48.6907 38.2272 45.8723 36.8729 43.0546 35.5171C42.7827 35.3863 42.5085 35.2597 42.2394 35.1232C42.0457 35.0251 41.8563 34.917 41.7308 34.729C41.7089 34.6782 41.6869 34.6274 41.665 34.5766C41.6216 34.4848 41.5538 34.4275 41.4545 34.3939C41.3524 34.3594 41.2572 34.3042 41.1595 34.2569C39.4121 33.4101 37.6648 32.5631 35.9173 31.7164C35.5157 31.5218 35.1111 31.3334 34.7128 31.1322C34.4994 31.0245 34.2619 31.1043 34.1244 31.2619C34.089 31.3024 34.0563 31.3474 34.0318 31.3952C33.9052 31.6418 33.7722 31.8858 33.6597 32.1388C33.5393 32.4095 33.5687 32.4711 33.8336 32.6003C34.6575 33.0022 35.4821 33.4024 36.306 33.804C36.364 33.8323 36.4188 33.867 36.4853 33.9044C36.4326 34.0133 36.3871 34.1072 36.3306 34.2239C36.0561 34.0782 35.7916 33.9378 35.527 33.7972C35.1876 33.6328 34.8484 33.4686 34.5092 33.3044C34.7038 33.4115 34.9029 33.5094 35.1034 33.6044C35.2439 33.6709 35.3862 33.7334 35.5278 33.7977C35.5599 33.8303 35.5871 33.8714 35.6252 33.8938C35.7292 33.9548 35.8387 34.0062 35.9444 34.0645C36.0639 34.1305 36.1816 34.1999 36.3041 34.27C36.111 34.6689 35.9432 35.0568 35.7396 35.4248C35.5309 35.802 35.5469 36.1819 35.6467 36.5761L35.6441 36.5672C35.6385 36.7622 35.7179 36.9012 35.904 36.9767C35.9983 37.015 36.088 37.0645 36.1963 37.1169C36.1713 37.1884 36.1561 37.2511 36.1286 37.3079C35.0842 39.4648 34.0386 41.6212 32.9932 43.7776C32.9591 43.848 32.9251 43.9184 32.8812 44.0091C32.8114 43.9815 32.7398 43.9585 32.6728 43.926C31.8852 43.5443 31.0973 43.163 30.3118 42.7769C30.1538 42.6993 30.004 42.6442 29.8326 42.7365C29.7948 42.7569 29.7351 42.7582 29.693 42.7448C29.5859 42.7106 29.483 42.6631 29.3708 42.6179C30.7095 39.8522 32.0386 37.1066 33.3772 34.3413C33.154 34.244 32.9303 34.1411 32.7019 34.0503C32.6381 34.025 32.5592 34.0246 32.489 34.0314C32.2786 34.0518 32.0828 34.0153 31.8925 33.9226C31.4476 33.7057 31 33.4944 30.5535 33.2808C30.5052 33.2577 30.4572 33.2342 30.3899 33.2016C30.2462 33.4985 30.1082 33.7836 29.964 34.0814C29.8853 34.0486 29.8229 34.0286 29.7662 33.998C29.1997 33.6925 28.5923 33.538 27.9538 33.4735C27.5289 33.4307 27.102 33.3819 26.6908 33.2529C26.0409 33.049 25.4669 32.7154 24.9777 32.2402C24.8534 32.1194 24.7373 31.9901 24.6099 31.8568C24.4349 32.0411 24.2158 32.0381 23.9878 32.0341C23.4883 32.0254 23.1091 32.2503 22.8429 32.669C22.7434 32.8254 22.7285 32.9978 22.7673 33.1749C22.8139 33.387 22.8732 33.5966 22.9132 33.8099C22.9373 33.9387 22.9437 34.0726 22.9428 34.2041C22.9417 34.3602 22.8498 34.4635 22.7085 34.5166C22.5674 34.5695 22.4234 34.6154 22.2788 34.6576C21.6522 34.8402 21.065 35.1029 20.5684 35.5341C20.4062 35.6748 20.2563 35.8383 20.1339 36.0144C19.808 36.4829 19.8486 36.968 20.1227 37.445C20.2357 37.6416 20.2438 37.6374 20.1064 37.8234C20.0778 37.8621 20.0463 37.8989 20.0145 37.935C19.8395 38.1338 19.7275 38.1658 19.4921 38.0393C19.3125 37.9427 19.1399 37.8272 18.9807 37.6996C18.0821 36.9794 17.1802 36.2628 16.2971 35.5238C15.9333 35.2193 15.6135 34.862 15.2746 34.528C15.254 34.5077 15.2406 34.4801 15.2112 34.4376C15.3705 34.1924 15.5221 33.9393 15.6929 33.6997C16.7214 32.2565 17.9513 31.0028 19.3034 29.8625C19.7085 29.5208 20.097 29.1582 20.4783 28.7898C20.6863 28.5889 20.8658 28.3568 20.9331 28.0624C21.0011 27.7654 21.0206 27.465 20.9647 27.1646C20.9193 26.9204 20.7902 26.7166 20.6263 26.5343C20.3419 26.2178 20.0141 25.9503 19.651 25.7332C19.1645 25.4422 18.6651 25.1725 18.1719 24.8927C18.0933 24.8481 18.0146 24.8026 17.9416 24.7498C17.818 24.6602 17.7914 24.5811 17.8503 24.4375C17.9259 24.2534 18.0131 24.0741 18.0967 23.8934C18.1422 23.7953 18.1906 23.6987 18.2492 23.5776C15.9132 22.4246 13.5606 21.3402 11.2209 20.1914C11.1437 20.3294 11.0769 20.4487 10.999 20.5877C10.9335 20.5611 10.8676 20.5383 10.8051 20.5083C9.79809 20.0255 8.79156 19.5417 7.78496 19.058C7.75232 19.0424 7.71872 19.0283 7.68747 19.0102C7.61497 18.9681 7.56253 18.979 7.49713 19.0401C7.34314 19.1841 7.17604 19.3139 7.01615 19.4517C6.96024 19.4999 6.90879 19.5152 6.83674 19.48C6.20208 19.1702 5.56594 18.8634 4.93059 18.555C4.91545 18.5476 4.90458 18.5315 4.88122 18.5097C4.97315 18.3198 5.06572 18.1286 5.16229 17.9291C5.23676 17.9568 5.302 17.9811 5.38008 18.0102C5.49822 17.7662 5.61332 17.5284 5.72617 17.2953C5.86152 17.3109 7.11055 17.884 7.2275 17.9835C7.25158 18.004 7.2609 18.0418 7.27449 18.0669C7.30897 18.0646 7.35341 18.0495 7.3883 18.0617C7.46768 18.0894 7.54284 18.1296 7.61891 18.1664C8.84165 18.7572 10.0643 19.3483 11.2868 19.9396C11.292 19.942 11.2958 19.9473 11.3085 19.9586C11.2935 20.0101 11.2771 20.0662 11.2573 20.1343C12.402 20.6884 13.5453 21.2418 14.7034 21.8024C14.7547 21.7188 14.806 21.6351 14.8685 21.5332C17.9152 23.008 20.9499 24.477 23.9976 25.9523C24.6739 24.5553 25.34 23.1791 26.008 21.7993C22.9275 20.3238 19.8544 18.8518 16.7813 17.3799C16.7769 17.389 16.7725 17.3981 16.7682 17.4072C19.8092 18.8793 22.8503 20.3514 25.9156 21.8352C25.2819 23.1751 24.6316 24.4926 23.9847 25.8349C23.8931 25.7976 23.8093 25.7687 23.73 25.7304C21.9962 24.8926 20.2631 24.0531 18.5294 23.2152C17.1271 22.5374 15.7242 21.8612 14.3216 21.1843C14.2301 21.1402 14.1387 21.0958 14.0407 21.0484C14.6511 19.7873 15.2543 18.5412 15.8655 17.2785C15.8299 17.3039 15.7929 17.3183 15.7751 17.3452C15.7186 17.4303 15.6628 17.5171 15.618 17.6087C15.136 18.596 14.6561 19.5843 14.1756 20.5723C14.1497 20.6256 14.1239 20.679 14.0863 20.7567C13.8438 20.6392 13.6137 20.5279 13.364 20.407C13.3808 20.3585 13.3979 20.2829 13.4316 20.2156C13.8675 19.3472 14.297 18.4755 14.7469 17.6144C14.9869 17.1549 15.2629 16.7142 15.5234 16.2655C15.5403 16.2362 15.5632 16.2104 15.5886 16.1759C15.6927 16.2609 15.5873 16.3204 15.5778 16.41C15.628 16.4405 15.6844 16.4816 15.7463 16.5114C16.9374 17.0849 18.1285 17.6586 19.321 18.2291C20.9438 19.0054 22.5677 19.7791 24.1912 20.5538C24.736 20.8137 25.2811 21.0732 25.826 21.3329C25.8852 21.3612 25.9441 21.3901 26.0056 21.4198C25.9949 21.5076 25.9857 21.5829 25.9761 21.6611C26.6121 21.969 27.24 22.2729 27.8778 22.5817C27.9236 22.5028 27.9646 22.4323 28.0044 22.3638C28.2479 22.4273 31.4884 24.0036 31.6302 24.1353C31.615 24.0874 31.6147 24.0539 31.5987 24.0426C31.5598 24.015 31.5137 23.9975 31.4703 23.9764C30.6723 23.5885 29.8741 23.2006 29.076 22.8127C29.0337 22.7922 28.9913 22.7717 28.9268 22.7405C29.18 22.212 29.426 21.6983 29.6788 21.1706C29.4471 21.0584 29.236 20.9564 29.0251 20.854C28.9817 20.833 28.9346 20.8159 28.8979 20.7862C28.8786 20.7705 28.878 20.7316 28.8611 20.6789C28.9204 20.6952 28.9546 20.6993 28.9838 20.7135C30.9823 21.6832 32.981 22.6527 34.9781 23.6254C35.2326 23.7493 35.4791 23.8894 35.7293 24.022C35.7294 24.022 35.7272 24.0152 35.7272 24.0152ZM24.3879 29.2803C24.4248 29.2448 24.4617 29.2092 24.4987 29.1737C24.4937 29.1688 24.4887 29.1639 24.4838 29.159C24.4517 29.1996 24.4196 29.2401 24.3875 29.2808C24.3646 29.328 24.3418 29.3751 24.319 29.4222C24.3222 29.4236 24.3254 29.4249 24.3286 29.4262C24.3483 29.3776 24.3681 29.329 24.3879 29.2803ZM30.922 26.5527C30.9209 26.5981 30.9199 26.6434 30.9189 26.6888C30.9331 26.687 30.9474 26.6852 30.9617 26.6834C30.9468 26.6404 30.9318 26.5973 30.9169 26.5543C30.9149 26.4827 30.9129 26.4111 30.9109 26.3395C30.9075 26.2768 30.9041 26.2141 30.9007 26.1513C30.8795 26.2163 30.8507 26.2828 30.9149 26.3378C30.8631 26.4113 30.873 26.4826 30.922 26.5527ZM17.5352 35.7069C17.5879 35.7515 17.6406 35.7962 17.6933 35.8408C17.6992 35.832 17.705 35.8232 17.7108 35.8144C17.6502 35.7789 17.5895 35.7435 17.5288 35.7081C17.4924 35.6147 17.4916 35.6155 17.3849 35.5643C17.4404 35.6178 17.4867 35.6625 17.5352 35.7069ZM26.5289 27.3762C26.5394 27.2961 26.5394 27.2961 26.4937 27.2265C26.4821 27.2305 26.4704 27.2345 26.4587 27.2385C26.4838 27.284 26.5088 27.3294 26.5339 27.3748C26.5048 27.4517 26.4757 27.5286 26.4597 27.5707C26.4568 27.5228 26.5803 27.4821 26.5289 27.3762ZM30.3224 32.972C30.2595 32.929 30.1966 32.886 30.1337 32.843C30.1402 32.8206 30.1575 32.7945 30.1515 32.7762C30.1038 32.6319 30.1485 32.5008 30.2091 32.3745C30.6502 31.4546 31.0927 30.5355 31.5366 29.617C31.5639 29.5606 31.6059 29.5113 31.6421 29.4571C34.9447 31.0674 38.2285 32.6684 41.5186 34.2726C41.5076 34.2201 41.5108 34.1731 41.437 34.1561C41.345 34.1348 41.2539 34.1011 41.1688 34.0596C38.977 32.9906 36.787 31.9178 34.5945 30.85C31.9407 29.5577 29.285 28.2693 26.6301 26.9793C26.4444 26.8891 26.2585 26.7994 26.05 26.6984C26.0965 26.7392 26.1231 26.7723 26.1575 26.7909C26.3218 26.8798 26.4861 26.9692 26.6544 27.0502C28.2422 27.8154 29.8309 28.5788 31.4189 29.3436C31.471 29.3686 31.5188 29.4024 31.571 29.4335C31.5486 29.4898 31.5357 29.5298 31.5175 29.5672C31.0993 30.4244 30.6808 31.2814 30.2618 32.1382C30.2273 32.2086 30.2037 32.2939 30.1487 32.3426C30.0622 32.419 30.0626 32.5054 30.0778 32.5986C30.0911 32.6808 30.1175 32.7609 30.1405 32.8415C30.2033 32.8843 30.266 32.9272 30.3288 32.9701C30.3326 33.0789 30.4321 33.0839 30.4994 33.1239C30.441 33.0731 30.3828 33.0223 30.3224 32.972ZM27.8116 25.6798C27.7826 25.8304 27.7831 25.8313 27.9018 25.8895C27.8764 25.8336 27.8421 25.7577 27.8077 25.6818C27.8292 25.5843 27.8508 25.4868 27.877 25.3687C27.8261 25.4799 27.7365 25.5611 27.8116 25.6798ZM26.3546 28.6457C26.1473 28.5719 25.9329 28.5569 25.7157 28.5637C25.9189 28.6035 26.1233 28.6337 26.328 28.6623C26.3352 28.6633 26.3445 28.6486 26.3532 28.6419C26.5115 28.703 26.6697 28.764 26.828 28.8251C26.857 28.833 26.8876 28.8372 26.9147 28.8493C27.3827 29.0588 27.8542 29.2608 28.3163 29.4826C28.599 29.6182 28.8609 29.7949 29.0918 30.0097C29.2583 30.1646 29.4142 30.331 29.5749 30.4923C29.5744 30.5037 29.5694 30.5177 29.5741 30.5263C29.7701 30.8793 29.8587 31.2667 29.9351 31.6577C29.9712 31.8426 30.0032 32.0283 30.037 32.2136C30.0498 32.081 30.0389 31.9517 30.0173 31.8241C29.9497 31.4258 29.8731 31.0291 29.6943 30.662C29.6644 30.6005 29.6121 30.5499 29.5702 30.4943C29.537 30.434 29.5123 30.3667 29.4692 30.3146C29.2718 30.0765 29.039 29.8747 28.7791 29.7096C28.1965 29.3396 27.5667 29.0644 26.9249 28.8159C26.898 28.8055 26.8609 28.8217 26.8276 28.824C26.6907 28.7095 26.5232 28.6762 26.3546 28.6457ZM31.034 26.976C31.0488 26.9097 31.0196 26.8633 30.9515 26.8368C30.9805 26.8827 31.0095 26.9285 31.0385 26.9744C31.0402 26.9972 31.0353 27.0232 31.0445 27.0424C31.2082 27.3845 31.4908 27.6027 31.8126 27.7796C31.5038 27.5667 31.2377 27.3132 31.05 26.9838C31.0476 26.9796 31.0395 26.9785 31.034 26.976ZM22.3984 28.4883C22.3383 28.4549 22.2783 28.4214 22.2182 28.388C22.214 28.398 22.2098 28.4079 22.2056 28.4179C22.2716 28.441 22.3377 28.4642 22.4038 28.4873C22.4159 28.5121 22.4213 28.5479 22.4411 28.5602C22.8415 28.8079 23.2446 29.0508 23.6598 29.2206C23.3955 29.0749 23.1087 28.9208 22.8263 28.7592C22.6804 28.6757 22.5422 28.5788 22.3984 28.4883ZM29.1688 25.431C29.115 25.449 29.0612 25.467 29.008 25.4848C28.7211 25.1639 28.5456 25.0768 28.3062 25.1437C28.4641 25.1611 28.6203 25.1685 28.7315 25.2814C28.8368 25.3883 28.9265 25.5105 29.0224 25.625C29.0695 25.5605 29.1183 25.4936 29.1671 25.4267C29.2301 25.4054 29.2932 25.384 29.3562 25.3627C29.35 25.3503 29.3437 25.3378 29.3375 25.3254C29.2812 25.3606 29.225 25.3958 29.1688 25.431ZM19.2954 30.7236C19.2651 30.7349 19.2281 30.7386 19.2054 30.7586C19.1061 30.846 19.0097 30.937 18.9142 31.0289C18.0308 31.8786 17.2183 32.7893 16.5238 33.8022C16.4254 33.9457 16.3888 34.0992 16.4142 34.2645C16.465 34.595 16.6455 34.8513 16.8977 35.062C16.9352 35.1556 16.9976 35.2242 17.1084 35.2425C17.0368 35.1829 16.9652 35.1234 16.8935 35.0639C16.8568 35.0055 16.8205 34.9469 16.7832 34.8889C16.702 34.7626 16.6066 34.6433 16.5417 34.5092C16.4216 34.2614 16.4523 34.0228 16.61 33.7919C17.0631 33.1281 17.5637 32.5029 18.1183 31.9217C18.5053 31.5162 18.9015 31.1194 19.2931 30.7176C19.3319 30.6825 19.3707 30.6473 19.4096 30.6122C19.3988 30.6041 19.388 30.596 19.3773 30.5879C19.35 30.6331 19.3227 30.6784 19.2954 30.7236ZM26.3358 29.2205C26.1555 29.1836 26.0051 29.1454 25.8525 29.1231C25.5218 29.0747 25.2363 29.1819 25.0268 29.4345C24.6541 29.884 24.5453 30.3844 24.8017 30.9337C24.8323 30.9993 24.8631 31.0649 24.8973 31.1286C25.1242 31.5521 25.3904 31.9441 25.7891 32.2282C26.5401 32.7633 27.3754 32.967 28.2885 32.8597C28.5981 32.8233 28.8701 32.7045 29.0845 32.4721C29.6292 31.8817 29.5504 30.9923 28.9017 30.4954C28.4342 30.1373 27.9016 29.8908 27.3738 29.6381C27.2922 29.599 27.2101 29.6059 27.1284 29.64C26.6606 29.835 26.3214 30.1552 26.1436 30.6383C26.0005 31.0272 25.9963 31.4159 26.1207 31.809C26.1339 31.8509 26.1355 31.8964 26.1424 31.9402C26.1297 31.9474 26.117 31.9546 26.1042 31.9618C26.0652 31.9228 26.0186 31.8889 25.9885 31.844C25.8201 31.5932 25.7278 31.315 25.7066 31.014C25.6728 30.534 25.8056 30.095 26.0437 29.6843C26.128 29.5391 26.2225 29.3998 26.3358 29.2205ZM31.4758 24.4897C31.5799 24.5401 31.6658 24.5816 31.7517 24.6232C35.315 26.3479 38.8783 28.0725 42.4414 29.7975C42.6097 29.879 42.7754 29.9659 42.944 30.0469C42.9654 30.0572 42.9968 30.047 43.0235 30.0463C43.0243 30.0374 43.0251 30.0285 43.0258 30.0196C39.1793 28.1576 35.3328 26.2956 31.4804 24.4308C31.4283 24.5384 31.3816 24.6349 31.3349 24.7314C31.3366 24.7324 31.3384 24.7333 31.3401 24.7343C31.3803 24.6618 31.4205 24.5893 31.4758 24.4897ZM42.5847 30.863C42.4819 30.8133 42.3902 30.7689 42.2985 30.7245C40.5711 29.8874 38.8443 29.0494 37.1162 28.2138C36.4588 27.8959 35.7986 27.5836 35.1395 27.2691C34.8569 27.1342 34.5883 27.1732 34.3326 27.3397C33.8995 27.6217 33.8756 28.2464 34.2891 28.5558C34.617 28.801 35.0059 28.8524 35.3985 28.8855C35.4028 28.8858 35.4082 28.8742 35.4188 28.8612C35.3539 28.8475 35.2952 28.8368 35.2374 28.8227C35.05 28.7772 34.8597 28.7405 34.6765 28.6816C34.428 28.6018 34.2122 28.4693 34.12 28.2058C34.0205 27.9216 34.0858 27.6643 34.2956 27.4565C34.5106 27.2436 34.7785 27.2284 35.0546 27.3131C35.152 27.343 35.2439 27.3922 35.3362 27.4368C37.6782 28.5695 40.0199 29.7027 42.3614 30.8363C42.4142 30.8619 42.464 30.8937 42.5269 30.9293C42.3841 31.2242 42.2468 31.5079 42.1095 31.7916C42.1164 31.7949 42.1234 31.7983 42.1303 31.8016C42.2798 31.4929 42.4292 31.1842 42.5847 30.863ZM34.324 29.1166C34.3203 29.1265 34.3165 29.1365 34.3128 29.1464C36.7673 30.3346 39.2218 31.5227 41.6765 32.7103C41.6788 32.7114 41.6856 32.7059 41.6886 32.7021C41.6923 32.6975 41.6941 32.6914 41.6969 32.6856C39.2392 31.4959 36.7816 30.3062 34.324 29.1166ZM22.3836 21.178C22.5698 21.15 22.7293 21.1054 22.8888 21.1058C23.3809 21.1069 23.7688 21.3284 24.0604 21.7171C24.2859 22.0179 24.3296 22.3527 24.2194 22.7115C24.1328 22.9932 23.9511 23.2061 23.7406 23.4003C23.7146 23.4243 23.6887 23.4484 23.6627 23.4725C23.6722 23.4809 23.6816 23.4894 23.6911 23.4978C23.8876 23.3231 24.1125 23.1756 24.2102 22.9049C24.2657 22.9243 24.3084 22.9393 24.3511 22.9542C24.25 22.8694 24.2473 22.7861 24.2827 22.6717C24.3193 22.5531 24.3333 22.4225 24.3303 22.2978C24.3212 21.917 24.1396 21.62 23.8492 21.3857C23.4107 21.0319 22.9353 20.9168 22.3836 21.178ZM19.2942 21.2284C19.456 21.0921 19.5569 20.916 19.6455 20.7313C19.8596 20.2847 19.7956 19.7845 19.4631 19.4168C19.1363 19.0554 18.7218 18.8672 18.2367 18.8387C18.147 18.8334 18.0558 18.8534 17.9652 18.8617C17.9652 18.8741 17.9652 18.8865 17.9652 18.8988C18.4263 18.8654 18.8277 19.0133 19.1986 19.2743C19.5784 19.5416 19.772 20.0098 19.6719 20.4622C19.6215 20.6901 19.5054 20.8876 19.386 21.0837C19.3563 21.1325 19.3249 21.1802 19.2942 21.2284ZM23.4675 24.8638C23.145 24.5557 21.5374 23.8259 21.2406 23.8307C21.9891 24.1779 22.7283 24.5208 23.4675 24.8638ZM54.3009 33.8294C54.2074 33.8837 54.1342 33.8189 54.0599 33.7832C53.1736 33.3574 52.2884 32.9294 51.4027 32.5022C50.859 32.2401 50.315 31.9785 49.7712 31.7165C49.6945 31.6796 49.6179 31.6423 49.5412 31.6052C49.5389 31.6103 49.5366 31.6154 49.5343 31.6205C51.1089 32.3827 52.6834 33.1449 54.2624 33.9092C54.2754 33.8824 54.2882 33.856 54.3009 33.8294ZM20.2775 21.5531C20.6081 21.7132 20.938 21.8749 21.2699 22.0324C21.387 22.088 21.4002 22.0814 21.466 21.9612C21.5499 21.8077 21.6249 21.6492 21.7124 21.4978C21.837 21.2822 21.8139 21.0762 21.6875 20.8726C21.6888 20.9235 21.7028 20.9729 21.7111 21.0231C21.7322 21.1504 21.7289 21.2747 21.6687 21.3938C21.5927 21.5442 21.5213 21.6968 21.4457 21.8474C21.4168 21.905 21.3817 21.9594 21.3375 22.0359C20.9705 21.884 20.6313 21.7018 20.2775 21.5531ZM18.2409 24.4376C18.1945 24.5348 18.2309 24.6556 18.3209 24.7027C18.4254 24.7575 18.5763 24.7024 18.6256 24.5916C18.667 24.4984 18.6224 24.3839 18.5252 24.3338C18.4155 24.2772 18.2968 24.3206 18.2409 24.4376ZM48.4538 31.0997C48.4559 31.0949 48.458 31.09 48.4601 31.0852C47.3753 30.5601 46.2906 30.035 45.2059 29.5099C45.2036 29.5147 45.2013 29.5194 45.199 29.5242C46.2839 30.0494 47.3689 30.5746 48.4538 31.0997ZM16.3915 19.0151C16.6941 19.2123 16.8032 19.4366 16.7423 19.7499C16.7185 19.8721 16.6684 19.9904 16.6205 20.1064C16.5732 20.2213 16.5135 20.3312 16.4593 20.4433C16.6045 20.2864 16.7082 20.1048 16.7843 19.9089C16.8625 19.7076 16.8946 19.5006 16.7969 19.2954C16.72 19.1339 16.5951 19.0351 16.3915 19.0151ZM15.894 19.0884C15.7297 19.1808 15.687 19.3523 15.6114 19.4989C15.5342 19.6489 15.4661 19.8036 15.393 19.9558C15.32 20.1079 15.2434 20.2584 15.173 20.4118C15.1058 20.5582 15.0065 20.6921 14.9902 20.8622C15.0342 20.8374 15.0658 20.8047 15.0841 20.7659C15.2745 20.3625 15.461 19.9573 15.6526 19.5545C15.7265 19.3992 15.8106 19.2486 15.894 19.0884ZM56.9209 33.2987C56.9184 33.2719 56.9257 33.2045 56.9042 33.148C56.8419 32.9843 56.6678 32.9032 56.4901 32.9437C56.2461 32.9993 56.1714 33.2178 56.3328 33.4039C56.4852 33.5797 56.7952 33.5429 56.9209 33.2987ZM26.3688 27.0803C26.372 27.0739 26.3751 27.0675 26.3783 27.061C26.222 26.9854 26.0659 26.9092 25.9093 26.8341C25.5459 26.66 25.182 26.487 24.8188 26.3124C24.7359 26.2726 24.645 26.2395 24.6319 26.1222C24.5963 26.2676 24.6973 26.3092 24.7885 26.3515C25.3147 26.5958 25.8419 26.8377 26.3688 27.0803ZM57.3385 29.5923C57.328 29.5871 57.3174 29.582 57.3069 29.5769C57.2811 29.6301 57.2556 29.6835 57.2295 29.7366C56.9128 30.3799 56.5959 31.0233 56.279 31.6666C56.2498 31.726 56.2173 31.7841 56.1932 31.8455C56.186 31.8636 56.2024 31.8909 56.2102 31.9233C56.5913 31.136 56.9649 30.3641 57.3385 29.5923ZM32.3502 33.8023C32.5696 33.7222 33.2483 33.2429 33.3439 33.0964C33.0239 33.3237 32.704 33.5509 32.3502 33.8023ZM30.287 24.8613C30.1963 24.8174 30.1206 24.7807 30.038 24.7407C30.1109 24.782 30.1769 24.8194 30.256 24.8642C30.206 24.9676 30.1629 25.0566 30.1198 25.1456C30.1278 25.1493 30.1359 25.1531 30.1439 25.1569C30.1901 25.0616 30.2362 24.9664 30.287 24.8613ZM24.2747 25.6789C24.2713 25.6835 24.2678 25.6881 24.2644 25.6927C24.372 25.7448 24.4796 25.7968 24.5872 25.8489C24.5896 25.8439 24.5921 25.8388 24.5946 25.8337C24.488 25.7821 24.3814 25.7305 24.2747 25.6789ZM15.9633 19.7901C15.9585 19.6786 15.9548 19.5946 15.9508 19.5035C15.8876 19.5952 15.8942 19.6791 15.9633 19.7901ZM33.984 33.0498C33.9836 33.0506 33.9832 33.0514 33.9828 33.0522C34.0503 33.0849 34.1178 33.1175 34.1852 33.1502C34.1856 33.1494 34.1861 33.1486 34.1864 33.1478C34.1189 33.1151 34.0515 33.0824 33.984 33.0498ZM44.7983 29.3562C44.7987 29.3493 44.7991 29.3424 44.7994 29.3354C44.7631 29.3228 44.7268 29.3101 44.6904 29.2974C44.6891 29.3011 44.6878 29.3048 44.6865 29.3084C44.7238 29.3244 44.761 29.3403 44.7983 29.3562ZM24.5167 26.5035C24.5184 26.5044 24.5201 26.5052 24.5218 26.5061C24.5414 26.4655 24.5611 26.4248 24.5808 26.3842C24.5791 26.3833 24.5774 26.3825 24.5757 26.3816C24.556 26.4222 24.5364 26.4629 24.5167 26.5035ZM33.7537 34.5514C33.754 34.5509 33.7543 34.5503 33.7545 34.5497C33.7208 34.5333 33.687 34.517 33.6533 34.5007C33.653 34.5012 33.6527 34.5018 33.6525 34.5024C33.6862 34.5187 33.72 34.5351 33.7537 34.5514ZM24.0373 26.5466C24.0378 26.5454 24.0382 26.5442 24.0386 26.5431C24.0221 26.5374 24.0055 26.5318 23.9889 26.5262C24.005 26.533 24.0212 26.5398 24.0373 26.5466ZM25.8012 27.8851C25.8016 27.8844 25.8019 27.8837 25.8023 27.8829C25.782 27.8731 25.7617 27.8633 25.7414 27.8535C25.7411 27.8542 25.7408 27.855 25.7404 27.8557C25.7607 27.8655 25.781 27.8753 25.8012 27.8851ZM24.7444 28.8982C24.7398 28.8931 24.7353 28.888 24.7308 28.883C24.7059 28.9055 24.681 28.928 24.6561 28.9504C24.66 28.9547 24.6639 28.959 24.6678 28.9632C24.6933 28.9415 24.7188 28.9198 24.7444 28.8982Z" fill="#ce203d"/>
<path d="M41.6649 34.5766C41.6868 34.6274 41.7087 34.6783 41.7306 34.7291C41.676 34.7946 41.6346 34.7314 41.5891 34.7139C41.539 34.6947 41.4887 34.6679 41.4549 34.7379C41.5646 34.8 41.6801 34.8444 41.7689 34.9201C41.9372 35.0634 42.128 35.1631 42.3244 35.2563C43.3713 35.7534 44.4211 36.2444 45.4647 36.7483C48.6391 38.2812 51.811 39.8193 54.9842 41.3546C55.5112 41.6096 56.0404 41.8603 56.5681 42.1141C56.692 42.1737 56.8152 42.2065 56.9438 42.1294L56.9351 42.1316C56.9521 42.1369 56.9715 42.1505 56.9857 42.1464C57.1645 42.0948 57.3127 42.1727 57.4661 42.2474C59.398 43.1887 61.331 44.1277 63.2637 45.0673C63.3634 45.1158 63.4633 45.164 63.576 45.1839C61.4683 44.1636 59.3606 43.1434 57.2387 42.1162C57.2763 42.0736 57.2953 42.0421 57.3228 42.0223C57.6063 41.8182 57.7849 41.5342 57.9334 41.2268C58.443 40.1724 58.9525 39.118 59.4621 38.0636C59.5353 37.9121 59.6087 37.7607 59.6935 37.5855C61.7406 38.5738 63.7771 39.5545 65.8309 40.554C65.9141 40.3822 65.9937 40.2176 66.0707 40.0586C66.3089 40.1214 66.5222 40.1839 66.7385 40.2329C66.9517 40.2812 67.1688 40.29 67.3857 40.2527C67.4329 40.2445 67.489 40.2415 67.5233 40.214C67.6281 40.1301 67.7401 40.1437 67.8499 40.1811C68.0153 40.2374 68.1771 40.3042 68.3393 40.3693C68.4275 40.4046 68.4995 40.4567 68.4869 40.5854C68.523 40.5375 68.5457 40.5073 68.573 40.4711C68.7292 40.5433 68.8175 40.6679 68.8415 40.8191C68.8684 40.9898 68.8796 41.1679 68.8638 41.3396C68.8274 41.7328 68.6978 42.1049 68.5613 42.4729C68.2521 43.3066 67.8564 44.1013 67.4509 44.8905C66.7088 46.3347 65.9639 47.7775 65.206 49.2135C64.5693 50.4198 63.917 51.6179 63.2623 52.8146C62.938 53.4075 62.6027 53.995 62.253 54.5732C62.0885 54.845 61.8872 55.0965 61.6847 55.3425C61.5995 55.446 61.4733 55.5199 61.3562 55.5917C61.2528 55.6552 61.1386 55.6791 61.0545 55.5382C60.9842 55.5916 60.9166 55.6328 60.8617 55.6869C60.7261 55.8205 60.574 55.8206 60.4095 55.759C60.2965 55.7167 60.1832 55.6752 60.0697 55.6342C59.9175 55.5792 59.7674 55.5331 59.5989 55.5292C59.4806 55.5264 59.3562 55.4637 59.2489 55.4026C59.1241 55.3316 59.0144 55.2339 58.8995 55.1461C58.839 55.1 58.8229 55.043 58.8607 54.9716C58.8974 54.9023 58.9279 54.8298 58.9619 54.759C60.1573 52.2728 61.3526 49.7866 62.5482 47.3004C62.692 47.0014 62.8373 46.703 62.9669 46.3971C62.8343 46.6709 62.7049 46.9462 62.5686 47.2181C62.3332 47.6873 62.0889 48.1521 61.8566 48.6227C61.3196 49.7107 60.7882 50.8015 60.2527 51.8902C60.1461 52.1068 60.0223 52.3151 59.9226 52.5346C59.8132 52.7754 59.4975 52.8872 59.2249 52.7725C59.0141 52.6839 58.8394 52.5514 58.6971 52.3731C58.4186 52.0244 58.1384 51.6769 57.859 51.3289C56.8884 50.1202 55.9197 48.91 54.9465 47.7034C54.4267 47.0588 53.8082 46.5251 53.0995 46.0961C53.0583 46.0712 53.0197 46.0419 52.9795 46.0151C52.9053 45.9654 52.8796 45.8963 52.9015 45.811C52.9194 45.7411 52.9349 45.6694 52.9628 45.6033C53.0662 45.3587 53.1745 45.1163 53.2805 44.8728C53.319 44.7843 53.3612 44.6969 53.393 44.606C53.4501 44.4429 53.4362 44.3926 53.2828 44.3116C53.0801 44.2047 52.8707 44.1103 52.6627 44.0139C52.6014 43.9855 52.5675 43.9412 52.5249 43.8892C52.4197 43.7609 52.3126 43.6179 52.1028 43.5871C52.0701 43.6441 52.0284 43.7076 51.9955 43.7755C50.916 46.0026 49.8373 48.2301 48.7585 50.4576C48.5982 50.7886 48.438 51.1196 48.2696 51.4675C48.1692 51.4225 48.0755 51.3848 47.986 51.3391C47.9007 51.2955 47.8269 51.2752 47.7358 51.3387C47.6423 51.4041 47.5306 51.4058 47.4243 51.3563C47.3155 51.3056 47.2081 51.252 47.0811 51.1906C47.1365 51.1284 47.1854 51.0735 47.2521 50.9986C47.0546 50.903 46.8727 50.8127 46.6882 50.728C46.6595 50.7149 46.6101 50.7142 46.5854 50.7305C46.3509 50.885 46.1505 50.772 45.9225 50.6494C45.9743 50.5777 46.0205 50.5138 46.0672 50.4491C45.9888 50.3518 45.6837 50.1863 45.4378 50.1123C45.419 50.1606 45.4008 50.2103 45.3803 50.2591C45.3067 50.4345 45.1766 50.5174 44.9924 50.4763C44.7707 50.4268 44.5506 50.3631 44.3682 50.2064C44.3906 50.1322 44.4094 50.0697 44.4371 49.9778C44.2907 50.0887 44.1584 50.1762 44.042 50.2815C43.9693 50.3473 43.9118 50.3717 43.82 50.3255C43.5666 50.1981 43.3106 50.0756 43.054 49.9548C42.9787 49.9193 42.951 49.8632 42.9404 49.7853C42.9224 49.654 42.8954 49.5239 42.8745 49.3929C42.8614 49.3111 42.829 49.2449 42.7524 49.2037C42.5614 49.101 42.3727 48.9938 42.1796 48.8953C42.1497 48.8801 42.0897 48.887 42.0632 48.9082C41.9095 49.0307 41.7841 48.968 41.6615 48.8595C41.639 48.8396 41.6148 48.8215 41.5833 48.7961C41.5004 48.8415 41.4206 48.8234 41.3352 48.7796C41.1152 48.6665 40.8924 48.558 40.6669 48.4565C40.5709 48.4133 40.527 48.3522 40.5275 48.249C40.5282 48.1285 40.5116 48.0069 40.5222 47.8875C40.5332 47.7638 40.4813 47.6999 40.3764 47.6498C40.1149 47.5252 39.8581 47.3907 39.5971 47.2649C39.0969 47.0237 38.5952 46.7856 38.0938 46.5469C38.0346 46.5187 37.9732 46.495 37.9078 46.4671C37.8101 46.5756 37.8321 46.6944 37.8583 46.8258C37.6999 46.8833 37.5462 46.8535 37.3948 46.8352C37.3265 46.827 37.317 46.7613 37.3181 46.708C37.3211 46.5698 37.3263 46.4312 37.342 46.294C37.3502 46.222 37.3588 46.1599 37.2776 46.1298C37.2026 46.102 37.1264 46.0312 37.0478 46.1196C36.9343 46.2471 36.8084 46.2332 36.6712 46.1639C36.5204 46.0878 36.3666 46.0173 36.2142 45.9444C36.1203 45.8995 36.0333 45.8671 35.9226 45.9196C35.8124 45.9717 35.7452 45.9221 35.7462 45.7994C35.7471 45.6866 35.7706 45.574 35.7866 45.4401C35.6808 45.3889 35.568 45.3343 35.4551 45.2796C35.341 45.2244 35.2254 45.1721 35.1132 45.1132C35.0118 45.06 34.9167 45.0333 34.8076 45.1007C34.7323 45.1471 34.6451 45.1415 34.5636 45.1026C34.4624 45.0542 34.3615 45.0049 34.2515 44.9517C34.2932 44.8915 34.3264 44.8435 34.3674 44.7842C34.3342 44.7582 34.3064 44.7287 34.2724 44.7112C34.0846 44.6146 33.8953 44.5209 33.7066 44.4261C33.6262 44.3858 33.5491 44.3786 33.4666 44.4285C33.3472 44.5006 33.2247 44.4871 33.1045 44.4239C33.0224 44.3808 32.9395 44.339 32.8396 44.2877C32.9027 44.2272 32.9443 44.1873 32.9936 44.1399C32.9721 44.1067 32.9506 44.0732 32.9231 44.0305C34.0271 41.7497 35.1337 39.4638 36.2502 37.1572C36.3103 37.182 36.3706 37.2032 36.4277 37.2308C37.3902 37.6947 38.3523 38.1594 39.3146 38.6236C39.4234 38.6761 39.5315 38.7305 39.6431 38.776C39.7116 38.8038 39.7862 38.8165 39.8568 38.8238C38.9891 38.4059 38.1216 37.9876 37.2536 37.5704C36.8402 37.3717 36.4293 37.1671 36.0101 36.9815C35.8161 36.8956 35.7105 36.7543 35.644 36.5672L35.6466 36.5761C35.6422 36.5046 35.6408 36.4327 35.633 36.3616C35.5956 36.0247 35.6307 35.7059 35.7972 35.3987C35.9926 35.0382 36.1624 34.6637 36.3424 34.2949C36.4654 34.0429 36.587 33.7901 36.7092 33.5377C36.7028 33.5343 36.6964 33.531 36.69 33.5276C36.6333 33.631 36.5767 33.7343 36.5176 33.8422C36.4682 33.8224 36.4344 33.8114 36.4027 33.7958C35.5633 33.3829 34.7241 32.9697 33.885 32.5561C33.8472 32.5375 33.8118 32.5134 33.7733 32.4964C33.68 32.4552 33.6512 32.3869 33.6808 32.2912C33.6967 32.2396 33.7061 32.1848 33.7292 32.1366C33.8337 31.919 33.9373 31.7008 34.0515 31.4883C34.0964 31.4049 34.1605 31.3278 34.2296 31.2624C34.3583 31.1404 34.5079 31.0994 34.6772 31.1853C34.7579 31.2263 34.842 31.2603 34.9235 31.2997C36.4771 32.0521 38.031 32.8038 39.5839 33.5577C40.2786 33.895 40.9712 34.2368 41.6649 34.5766ZM52.9333 43.661C52.9506 43.5864 52.968 43.5119 52.9852 43.4373C52.931 43.5051 52.885 43.5743 52.9384 43.6592C53.0933 43.7456 53.248 43.8321 53.4029 43.9186C53.407 43.9106 53.4112 43.9026 53.4154 43.8947C53.2546 43.8168 53.0938 43.739 52.9333 43.661ZM53.1723 42.5864C53.1839 42.592 53.1954 42.5976 53.207 42.6032C53.2982 42.4149 53.387 42.2255 53.4811 42.0387C53.5616 41.879 53.5757 41.8741 53.7282 41.9469C54.5998 42.3627 55.471 42.7796 56.3419 43.197C56.3935 43.2217 56.4412 43.2545 56.5002 43.2891C56.4631 43.3658 56.4344 43.4249 56.4058 43.484C56.0194 44.2827 55.6324 45.0812 55.2475 45.8807C55.2032 45.9727 55.1639 46.0683 55.1333 46.1657C55.0781 46.3414 55.0914 46.5157 55.197 46.6689C55.3028 46.8224 55.4147 46.9733 55.5376 47.1132C56.2184 47.888 56.9019 48.6603 57.588 49.4303C57.7321 49.5921 57.8798 49.7539 58.045 49.8929C58.4079 50.1983 58.8547 50.1443 59.1423 49.7717C59.1933 49.7056 59.2312 49.6282 59.2683 49.5526C59.3853 49.3142 59.4995 49.0745 59.614 48.8348C59.705 48.6442 59.8013 48.4557 59.8838 48.2615C60.0099 47.9648 59.9703 47.6954 59.7257 47.4697C59.6903 47.437 59.6592 47.3989 59.6209 47.3701C59.4982 47.2779 59.4609 47.1708 59.5392 47.0285C59.5797 46.955 59.6023 46.8718 59.6385 46.7956C59.8016 46.4521 59.9666 46.1095 60.131 45.7666C60.1589 45.7083 60.1873 45.6503 60.2094 45.6045C59.7824 45.3978 59.3741 45.2057 58.9716 45.0022C58.8328 44.9321 58.7063 44.8365 58.5782 44.7469C58.4533 44.6596 58.3971 44.5366 58.4295 44.385C58.4487 44.2955 58.4099 44.2544 58.3357 44.2173C57.5865 43.8425 56.8601 43.4242 56.1024 43.0649C55.3171 42.6925 54.5418 42.2992 53.7625 41.9143C53.7204 41.8935 53.6817 41.8659 53.6335 41.8366C53.663 41.7606 53.6895 41.6922 53.7161 41.6239C53.7122 41.6225 53.7083 41.621 53.7044 41.6195C53.6662 41.6791 53.6279 41.7387 53.5793 41.8144C53.4971 41.7818 53.4181 41.7561 53.3441 41.7204C52.2239 41.1807 51.1037 40.6411 49.9847 40.0987C47.1548 38.7272 44.3256 37.3544 41.4961 35.9818C41.4093 35.9397 41.3215 35.8986 41.2382 35.8502C41.1366 35.7913 41.0714 35.7078 41.0952 35.5782C41.0311 35.7583 41.0466 35.8026 41.1996 35.8873C41.226 35.9019 41.2536 35.9142 41.2808 35.9273C41.9059 36.2291 42.5311 36.5305 43.1561 36.8325C46.5638 38.4789 49.9715 40.1254 53.3789 41.7725C53.4253 41.7949 53.4676 41.8256 53.5241 41.8599C53.4021 42.1118 53.2872 42.3491 53.1723 42.5864ZM43.0578 35.7186C43.0512 35.7296 43.0446 35.7407 43.038 35.7517C47.7274 38.0217 52.4169 40.2917 57.1063 42.5617C57.0334 42.4876 56.9488 42.4325 56.8589 42.3885C56.5446 42.2347 56.2287 42.0842 55.913 41.9334C55.0419 41.5173 54.1686 41.1057 53.2996 40.6853C50.4201 39.2923 47.5418 37.8969 44.6639 36.5005C44.2407 36.2951 43.8228 36.0787 43.4012 35.87C43.2891 35.8145 43.1724 35.7688 43.0578 35.7186ZM48.77 43.2675C48.7651 43.2652 48.7602 43.2629 48.7553 43.2606C47.6672 45.5084 46.5791 47.7562 45.491 50.004C45.4959 50.0063 45.5008 50.0087 45.5056 50.011C46.5937 47.7632 47.6819 45.5154 48.77 43.2675ZM44.3332 40.9782C44.3794 41.0824 44.4688 41.1203 44.5535 41.1614C45.7692 41.7514 46.9852 42.3409 48.2014 42.9297C48.261 42.9585 48.3225 42.9853 48.3857 43.0039C48.4648 43.0272 48.5462 43.0382 48.6083 42.9897C48.5039 42.9617 48.3923 42.9442 48.2911 42.9019C48.0965 42.8206 47.9055 42.7298 47.717 42.635C46.5986 42.0728 45.4487 41.5751 44.3332 40.9782ZM42.504 36.2427C42.7717 36.1514 42.8794 35.9957 42.8826 35.7424C42.7387 35.6473 42.6014 35.5989 42.5881 35.6397C42.6246 35.6494 42.6613 35.6592 42.7263 35.6765C42.6407 35.856 42.6812 36.0608 42.504 36.2427ZM37.3838 33.2397C37.3821 33.2433 37.3803 33.2469 37.3786 33.2505C38.1536 33.6256 38.9286 34.0007 39.7036 34.3759C39.7053 34.3723 39.707 34.3687 39.7088 34.3652C38.9338 33.99 38.1588 33.6149 37.3838 33.2397ZM43.8733 49.2299C43.874 49.2266 43.8747 49.2232 43.8754 49.2199C43.1778 48.8822 42.4801 48.5444 41.7824 48.2067C41.781 48.2097 41.7795 48.2127 41.7781 48.2157C42.4765 48.5538 43.1749 48.8918 43.8733 49.2299ZM53.8407 41.6234C54.0098 41.6426 54.1279 41.4649 54.131 41.2046C54.0791 41.1907 54.0235 41.1759 53.9609 41.1591C53.9095 41.2654 53.8635 41.3604 53.8171 41.4563C53.8972 41.3928 53.8869 41.255 54.0433 41.2049C53.9664 41.3638 53.905 41.4906 53.8407 41.6234ZM41.396 34.9109C41.39 34.9192 41.384 34.9275 41.3781 34.9358C41.3913 34.9511 41.4014 34.9733 41.4181 34.9808C41.8266 35.1645 42.2359 35.3465 42.6449 35.5289C42.6464 35.5251 42.6478 35.5213 42.6492 35.5175C42.2315 35.3153 41.8137 35.1131 41.396 34.9109ZM49.3639 42.3282C49.1929 42.3399 49.0288 42.4878 48.8487 42.7631C49.0579 42.683 49.1203 42.4027 49.3639 42.3282ZM41.2729 48.2853C41.2387 48.2316 41.2248 48.184 41.1967 48.173C41.1684 48.162 41.1259 48.1876 41.0896 48.1971C41.1057 48.2365 41.1125 48.2873 41.1414 48.3111C41.1592 48.3257 41.2109 48.2991 41.2729 48.2853ZM41.2814 35.1372C41.2649 35.1307 41.2692 35.1324 41.2736 35.1341C41.2647 35.1269 41.2569 35.1176 41.247 35.1127C41.1173 35.0494 40.9873 34.9866 40.8574 34.9237C40.8563 34.926 40.8552 34.9282 40.8541 34.9304C40.9898 34.9961 41.1255 35.0618 41.2814 35.1372ZM63.3951 51.2749C63.3969 51.2758 63.3986 51.2767 63.4004 51.2776C63.4696 51.1346 63.5388 50.9916 63.608 50.8485C63.6063 50.8477 63.6046 50.8468 63.6028 50.8459C63.5336 50.9889 63.4644 51.1319 63.3951 51.2749ZM44.3946 40.4231C44.3294 40.5485 44.278 40.6766 44.3149 40.8215C44.3414 40.6887 44.368 40.5559 44.3946 40.4231ZM43.6175 49.5029C43.587 49.4636 43.5721 49.4255 43.5482 49.4187C43.5233 49.4117 43.4897 49.4347 43.46 49.4445C43.4768 49.4763 43.4867 49.5179 43.5129 49.536C43.5282 49.5466 43.5695 49.5194 43.6175 49.5029ZM60.9523 53.9123C60.9531 53.9127 60.954 53.9131 60.9548 53.9135C60.9877 53.8454 61.0207 53.7774 61.0536 53.7093C61.0528 53.7089 61.052 53.7085 61.0512 53.7082C61.0182 53.7762 60.9853 53.8443 60.9523 53.9123ZM44.4225 40.1724C44.4548 40.0372 44.4548 40.0372 44.3778 39.9364C44.3949 40.0267 44.4088 40.1002 44.4225 40.1724ZM43.8087 49.7314C43.7792 49.8378 43.8071 49.8725 43.8645 49.873C43.883 49.8731 43.9019 49.8363 43.9206 49.8164C43.8881 49.7917 43.8556 49.767 43.8087 49.7314ZM62.4078 53.0789C62.4063 53.0782 62.4047 53.0775 62.4031 53.0768C62.3753 53.1342 62.3475 53.1917 62.3197 53.2492C62.3213 53.2499 62.3228 53.2506 62.3244 53.2513C62.3522 53.1938 62.38 53.1364 62.4078 53.0789ZM62.6403 52.6702C62.6402 52.6729 62.6402 52.6755 62.6402 52.6782C62.6665 52.6237 62.6929 52.5693 62.7192 52.5149C62.7182 52.5143 62.7172 52.5138 62.7162 52.5133C62.6909 52.5656 62.6656 52.6179 62.6403 52.6702ZM44.1094 49.507C44.0702 49.4684 44.0515 49.4376 44.0252 49.4284C44.0073 49.4221 43.9788 49.4459 43.9551 49.4562C43.9736 49.4801 43.9879 49.5123 44.0123 49.5252C44.0295 49.5343 44.0605 49.5174 44.1094 49.507ZM63.0813 51.8422C63.0823 51.8428 63.0833 51.8434 63.0843 51.844C63.1051 51.8011 63.1258 51.7582 63.1466 51.7152C63.1456 51.7147 63.1445 51.7142 63.1434 51.7137C63.1227 51.7565 63.102 51.7994 63.0813 51.8422ZM60.6313 54.4908C60.6327 54.4915 60.6342 54.4922 60.6356 54.4929C60.6582 54.4461 60.6809 54.3993 60.7036 54.3524C60.7021 54.3518 60.7007 54.3511 60.6993 54.3504C60.6766 54.3972 60.654 54.444 60.6313 54.4908ZM61.3956 53.0834C61.3957 53.0834 61.3958 53.0835 61.3959 53.0835C61.4128 53.0486 61.4297 53.0137 61.4466 52.9788C61.4465 52.9788 61.4464 52.9787 61.4463 52.9787C61.4294 53.0136 61.4125 53.0485 61.3956 53.0834ZM42.4188 35.8843C42.4921 35.9152 42.4921 35.9152 42.5015 35.836C42.472 35.8532 42.448 35.8672 42.4188 35.8843ZM35.4384 31.8579C35.4362 31.8593 35.4341 31.8607 35.4319 31.8622C35.454 31.8728 35.476 31.8835 35.498 31.8942C35.499 31.8922 35.4999 31.8901 35.5008 31.8881C35.48 31.878 35.4592 31.8679 35.4384 31.8579ZM60.2894 55.0604C60.2857 55.0584 60.282 55.0563 60.2782 55.0543C60.2672 55.077 60.2563 55.0997 60.2453 55.1224C60.2476 55.1237 60.2499 55.1251 60.2522 55.1264C60.2646 55.1044 60.277 55.0824 60.2894 55.0604Z" fill="#ce203d"/>
<path d="M9.73694 13.08C9.84286 13.0378 9.8822 12.9389 9.92718 12.8484C10.0722 12.5565 10.2125 12.2623 10.3559 11.9696C10.387 11.906 10.423 11.8448 10.4658 11.766C10.7595 11.8993 11.0406 12.0236 11.3188 12.154C11.5963 12.2841 11.871 12.4204 12.1573 12.559C12.2137 12.4426 12.2654 12.3359 12.3279 12.2067C12.4167 12.2497 12.4957 12.288 12.5747 12.3262C12.6549 12.365 12.7351 12.4038 12.8241 12.4469C12.7664 12.5662 12.7148 12.6728 12.6566 12.7929C12.8305 12.8771 12.9957 12.9571 13.1793 13.0459C13.2336 12.9464 13.2898 12.8433 13.3526 12.7282C13.5216 12.8101 13.6864 12.8899 13.8619 12.9748C13.8078 13.0866 13.7588 13.1879 13.699 13.3113C13.8802 13.409 14.0562 13.4912 14.2532 13.5776C14.3109 13.4584 14.3621 13.3526 14.4183 13.2366C14.5964 13.3228 14.7562 13.4002 14.9329 13.4857C14.8768 13.6016 14.8228 13.7132 14.7603 13.8422C14.9333 13.9449 15.1014 14.0173 15.281 14.1046C15.348 13.9805 15.4069 13.8713 15.477 13.7414C15.6485 13.8205 15.8152 13.8961 15.9912 14.0008C15.9318 14.1234 15.8755 14.2396 15.8149 14.3649C15.9887 14.449 16.1441 14.5243 16.3193 14.6091C16.3732 14.4978 16.4268 14.387 16.4881 14.2604C16.6809 14.3301 16.8389 14.4241 17.0195 14.5099C16.9595 14.6339 16.9055 14.7453 16.8462 14.8678C17.0206 14.9523 17.1801 15.0294 17.3565 15.1148C17.4144 14.9952 17.4708 14.8787 17.532 14.7523C17.7196 14.843 17.8902 14.9256 18.074 15.0146C18.0175 15.1314 17.9658 15.2383 17.9052 15.3634C18.0678 15.4646 18.2273 15.5395 18.4177 15.6028C18.4738 15.4868 18.5276 15.3757 18.5861 15.2548C18.7604 15.3392 18.9147 15.4139 19.0869 15.4973C19.0269 15.6214 18.9705 15.7378 18.9092 15.8644C19.0869 15.9505 19.247 16.028 19.4279 16.1155C19.4821 16.0035 19.5356 15.893 19.5942 15.772C19.7749 15.8594 19.9352 15.937 20.1112 16.0222C20.0584 16.1313 20.0048 16.2421 19.9454 16.3647C20.1207 16.4495 20.2806 16.527 20.4576 16.6126C20.5166 16.5043 20.5757 16.3961 20.6401 16.2779C20.814 16.362 20.9788 16.4418 21.156 16.5276C21.0963 16.6509 21.04 16.7672 20.9794 16.8924C21.1462 16.9731 21.3007 17.0479 21.4697 17.1297C21.5299 17.0054 21.5842 16.8933 21.6359 16.7865C21.7818 16.803 22.0165 16.9095 22.2128 17.0456C22.1578 17.1593 22.1014 17.2759 22.0394 17.4038C22.2083 17.4856 22.3626 17.5603 22.5348 17.6436C22.6016 17.5209 22.6634 17.4074 22.7337 17.2782C22.9166 17.3494 23.0811 17.4451 23.2685 17.5372C23.2111 17.671 23.1575 17.7958 23.0956 17.94C23.2649 18.0354 23.438 18.1133 23.6287 18.2006C23.6927 18.0685 23.752 17.9459 23.8212 17.8029C24.0222 17.8794 24.1923 17.9774 24.3803 18.0728C24.317 18.2036 24.2579 18.3258 24.1892 18.4676C24.361 18.5655 24.5268 18.6435 24.7094 18.7247C24.7741 18.6056 24.8334 18.4963 24.9012 18.3714C25.1022 18.4687 25.2987 18.5638 25.5066 18.6645C25.4504 18.7807 25.3936 18.8979 25.331 19.0272C25.5007 19.1094 25.6596 19.1863 25.8299 19.2687C25.8933 19.1532 25.9527 19.0448 26.0162 18.9289C26.185 19.0106 26.3403 19.0858 26.5161 19.1709C26.4584 19.2901 26.3999 19.4108 26.3375 19.5398C26.5022 19.6195 26.6467 19.6894 26.8114 19.7692C26.8744 19.6391 26.9357 19.5124 27.0032 19.373C27.1989 19.4677 27.3749 19.5529 27.5665 19.6456C27.5057 19.7712 27.4439 19.8987 27.373 20.0453C27.5285 20.1384 27.6783 20.207 27.8507 20.2775C27.918 20.1384 27.9821 20.006 28.0505 19.8648C28.2569 19.9647 28.4451 20.0558 28.6557 20.1578C28.5831 20.3078 28.5088 20.4612 28.4271 20.63C28.566 20.6972 28.6833 20.754 28.8124 20.8165C28.593 21.2697 28.3813 21.707 28.1591 22.1659C22.2336 19.3331 16.3269 16.4593 10.4077 13.6017C10.4514 13.6309 10.4942 13.6617 10.5392 13.6888C10.5856 13.7168 10.6332 13.7433 10.682 13.767C11.0457 13.9437 11.4103 14.1187 11.7738 14.296C12.5001 14.6502 13.2258 15.0056 13.952 15.3603C14.4175 15.5877 14.8835 15.8143 15.3489 16.042C15.4021 16.068 15.4532 16.0982 15.5126 16.1304C15.2249 16.6342 14.9348 17.1249 14.662 17.6251C14.3876 18.1284 14.1222 18.637 13.868 19.1508C13.6143 19.6638 13.3402 20.1691 13.1775 20.7441C13.112 20.7222 13.0423 20.7071 12.9801 20.6767C12.5686 20.4753 12.1591 20.2697 11.7481 20.0672C11.4842 19.937 11.2193 19.8087 10.954 19.6812C9.84443 19.1483 8.73451 18.616 7.62474 18.0834C7.52251 18.0344 7.42059 17.9847 7.3025 17.9275C7.33785 17.846 7.36336 17.7804 7.39407 17.7173C8.05727 16.3551 8.72117 14.9933 9.38445 13.6311C9.43993 13.5172 9.48509 13.3976 9.54821 13.2882C9.58856 13.2183 9.65313 13.1623 9.70686 13.1001C9.71687 13.0933 9.72691 13.0867 9.73694 13.08ZM27.6524 21.1969C26.5045 20.5883 25.3329 20.0325 24.1958 19.4061C23.314 18.9202 22.4035 18.4856 21.4988 18.0423C20.3611 17.4848 19.2179 16.9383 18.0732 16.3952C17.8456 16.2871 17.601 16.2144 17.3629 16.129C17.3282 16.1165 17.2863 16.1243 17.2488 16.1228C17.2341 16.215 17.3007 16.2244 17.3441 16.2476C17.6259 16.3985 17.9047 16.5558 18.1926 16.6943C20.5248 17.8164 22.8313 18.9926 25.199 20.0407C25.2458 20.0614 25.2883 20.0919 25.3437 20.1241C25.277 20.2619 25.2182 20.3833 25.1595 20.5047C25.1695 20.5095 25.1795 20.5144 25.1896 20.5192C25.2541 20.3859 25.3186 20.2526 25.3913 20.1024C26.1564 20.4727 26.9044 20.8348 27.6524 21.1969ZM15.4489 15.2547C15.4453 15.259 15.4417 15.2634 15.4381 15.2677C16.0115 15.5453 16.5848 15.8228 17.1581 16.1003C17.1605 16.0954 17.1629 16.0905 17.1653 16.0855C16.5932 15.8086 16.021 15.5316 15.4489 15.2547ZM10.7035 12.7636C10.7019 12.7668 10.7004 12.7699 10.6988 12.773C11.075 12.9551 11.4512 13.1372 11.8273 13.3193C11.8289 13.3162 11.8305 13.313 11.832 13.3099C11.4558 13.1278 11.0797 12.9457 10.7035 12.7636ZM11.7319 19.9567C11.7444 19.9581 11.7569 19.9596 11.7694 19.9611C11.7769 19.8874 11.7845 19.8137 11.792 19.74C11.7824 19.7389 11.7728 19.7379 11.7633 19.7369C11.7528 19.8101 11.7423 19.8834 11.7319 19.9567ZM12.1018 18.6737C12.1008 18.6703 12.0998 18.667 12.0987 18.6636C12.0748 18.7131 12.0509 18.7625 12.0269 18.8119C12.0292 18.8127 12.0314 18.8135 12.0337 18.8143C12.0564 18.7674 12.0791 18.7205 12.1018 18.6737ZM11.9913 18.9894C11.9853 18.987 11.9793 18.9846 11.9734 18.9822C11.9581 19.0188 11.9429 19.0554 11.9276 19.0919C11.9347 19.0944 11.9418 19.0969 11.9488 19.0994C11.963 19.0627 11.9771 19.0261 11.9913 18.9894Z" fill="#ce203d"/>
<path d="M9.73684 13.0802C9.72681 13.0869 9.71679 13.0936 9.70675 13.1003C9.61817 13.1091 9.52958 13.1179 9.4203 13.1287C9.54001 13.1765 9.50831 13.2452 9.47147 13.3194C9.25146 13.7628 9.03142 14.2063 8.81461 14.6513C8.32547 15.6553 7.83822 16.6602 7.35023 17.6647C7.31649 17.7342 7.28293 17.8037 7.24266 17.8869C6.71558 17.6762 6.25065 17.3795 5.72015 17.1805C5.62003 17.3873 5.52677 17.58 5.42835 17.7833C4.94464 17.5491 4.47997 17.3242 4.00077 17.0922C4.01984 16.9395 4.03901 16.7858 4.05954 16.6214C3.93204 16.5954 3.91338 16.4943 3.89714 16.3947C3.85364 16.1279 3.88977 15.8645 3.94591 15.6045C4.05974 15.0774 4.24735 14.5744 4.46084 14.0806C4.77576 13.3522 5.15599 12.6607 5.63672 12.0276C5.77552 11.8448 5.93088 11.6746 6.12816 11.5516C6.21214 11.4993 6.30499 11.4612 6.41716 11.4048C6.4092 11.457 6.41241 11.4773 6.40378 11.4867C5.96145 11.9675 5.65452 12.5367 5.3578 13.11C4.92743 13.9414 4.53882 14.7924 4.23285 15.6787C4.14463 15.9342 4.06094 16.1923 4.06729 16.4705C4.10618 16.3194 4.13973 16.1667 4.18489 16.0175C4.441 15.1714 4.80154 14.3681 5.19079 13.5766C5.46535 13.0183 5.75637 12.4699 6.10593 11.9534C6.31236 11.6485 6.57025 11.4018 6.87443 11.1978C6.947 11.1491 7.00334 11.1585 7.07353 11.193C7.45814 11.3822 7.85377 11.5513 8.2274 11.7598C8.7479 12.0504 9.29381 12.2864 9.82638 12.5507C9.87396 12.5743 9.92196 12.597 9.97865 12.6245C9.93034 12.8059 9.82814 12.9403 9.73684 13.0802ZM9.22404 13.0643C9.22841 13.0557 9.23279 13.0471 9.23716 13.0385C9.08663 12.9656 8.93883 12.8862 8.78478 12.8217C8.63511 12.7591 8.55431 12.5878 8.37398 12.5534C8.4014 12.6771 8.46978 12.7162 8.57119 12.7552C8.79529 12.8414 9.00716 12.9593 9.22404 13.0643ZM8.32389 12.0073C8.31559 12.0032 8.30729 11.9991 8.29899 11.995C8.25994 12.0912 8.22091 12.1874 8.18186 12.2835C8.19156 12.2874 8.20124 12.2912 8.21094 12.295C8.24859 12.1991 8.28625 12.1032 8.32389 12.0073Z" fill="#ce203d"/>
<path d="M31.4703 19.4181C31.4792 19.5044 31.5475 19.5343 31.6125 19.5664C31.7146 19.6167 31.8173 19.6658 31.9249 19.7178C31.9058 19.7821 31.891 19.8317 31.879 19.8721C31.8981 19.8391 31.922 19.7979 31.9461 19.7561C31.97 19.7573 31.9892 19.7532 32.0036 19.7598C32.1954 19.8469 32.3873 19.9337 32.5774 20.0244C32.6865 20.0765 32.789 20.0907 32.9057 20.0363C33.003 19.9909 33.1108 19.9632 33.2168 19.9426C33.3307 19.9205 33.3862 19.8557 33.4355 19.7542C33.5061 19.6091 33.5995 19.4745 33.6907 19.3405C33.7196 19.2981 33.768 19.2573 33.8157 19.2426C33.8685 19.2262 33.9365 19.2274 33.9861 19.2485C34.0042 19.2562 33.9971 19.3447 33.9869 19.3933C33.9659 19.4933 33.9271 19.5899 33.9099 19.6903C33.8673 19.9382 33.9733 20.1456 34.2003 20.2561C34.2862 20.2978 34.3791 20.3311 34.4725 20.3501C34.7195 20.4002 34.9454 20.2954 35.0675 20.0737C35.2013 19.8306 35.3248 19.5819 35.4571 19.3379C35.5058 19.2481 35.564 19.163 35.623 19.0794C35.6503 19.0407 35.6842 18.9949 35.725 18.9805C35.7827 18.9601 35.8535 18.9499 35.9115 18.9643C35.9839 18.9822 36.0102 19.0561 35.9967 19.1255C35.9566 19.3321 35.9237 19.5419 35.8599 19.7415C35.7923 19.9531 35.6982 20.1571 35.6052 20.3596C35.4768 20.6392 35.3382 20.9141 35.2047 21.1914C35.1716 21.2603 35.1289 21.3226 35.1779 21.4104C35.1968 21.4441 35.1629 21.5127 35.1434 21.5616C35.0778 21.7259 35.0347 21.8946 35.0409 22.0723C35.0503 22.3396 35.1536 22.5475 35.4093 22.6666C35.5785 22.7454 35.7419 22.837 35.9062 22.9261C36.0511 23.0048 36.0935 23.1306 36.0813 23.2914C36.0674 23.4733 35.9975 23.6298 35.8983 23.776C35.8084 23.9083 35.7418 23.9237 35.5902 23.8578C35.5515 23.841 35.5142 23.8211 35.4762 23.8026C33.8056 22.9884 32.1353 22.1737 30.4642 21.3605C30.231 21.247 29.9944 21.1402 29.7596 21.03C29.7007 21.0024 29.6424 20.9734 29.572 20.9393C29.6026 20.8662 29.6227 20.8108 29.6483 20.7581C29.9756 20.0853 30.3031 19.4126 30.6318 18.7404C30.7357 18.5281 30.795 18.5098 31.0154 18.5935C31.1549 18.6465 31.2461 18.7311 31.2881 18.8804C31.34 19.0651 31.4107 19.2445 31.4733 19.4261L31.4703 19.4181Z" fill="#ce203d"/>
<path d="M35.7293 24.022C35.7338 24.0109 35.7354 23.993 35.7432 23.9895C35.9552 23.8974 36.0506 23.7143 36.121 23.5107C36.1265 23.4947 36.1415 23.4818 36.1529 23.4682C36.1564 23.464 36.1628 23.4623 36.18 23.4527C36.284 23.5031 36.3953 23.5569 36.5212 23.6179C36.47 23.7236 36.421 23.8247 36.361 23.9489C36.4918 24.0122 36.6087 24.0688 36.7256 24.1253C36.8389 24.1802 36.9523 24.2351 37.0765 24.2952C37.1402 24.1782 37.194 24.0793 37.2564 23.9646C37.4521 24.0387 37.6294 24.1333 37.8229 24.229C37.7711 24.3495 37.7246 24.4577 37.6761 24.5706C37.8674 24.6632 38.0492 24.7512 38.2444 24.8457C38.302 24.7412 38.3526 24.6493 38.4081 24.5487C38.6327 24.6575 38.8473 24.7613 39.0782 24.8731C39.0231 24.9869 38.9716 25.0931 38.9108 25.2189C39.0805 25.3251 39.2489 25.3961 39.4357 25.478C39.4963 25.3528 39.5526 25.2366 39.6142 25.1092C39.8481 25.2224 40.0633 25.3266 40.3007 25.4415C40.2548 25.554 40.2063 25.6727 40.1547 25.7993C40.3464 25.8921 40.524 25.978 40.7192 26.0725C40.7752 25.9569 40.8286 25.8465 40.887 25.7259C41.0806 25.8197 41.2568 25.9049 41.45 25.9985C41.3913 26.1197 41.3352 26.2355 41.2741 26.3619C41.4667 26.4551 41.6424 26.5402 41.83 26.631C41.8937 26.5178 41.952 26.4143 42.0217 26.2905C42.2518 26.3923 42.4717 26.495 42.6968 26.6175C42.6419 26.7468 42.5935 26.8609 42.542 26.9825C42.7301 27.0736 42.9067 27.159 43.1002 27.2527C43.162 27.1397 43.221 27.0318 43.2842 26.9163C43.4858 27.0139 43.6786 27.1073 43.8843 27.2068C43.8264 27.3265 43.7723 27.4382 43.7076 27.5718C43.9313 27.6981 44.1544 27.7927 44.3925 27.89C44.4496 27.7722 44.5013 27.6652 44.5641 27.5356C44.8064 27.6385 45.0278 27.7537 45.2681 27.8708C45.2135 28.0004 45.1633 28.1197 45.1077 28.252C45.2713 28.3312 45.4204 28.4033 45.5863 28.4837C45.6498 28.3677 45.712 28.2543 45.7788 28.1322C45.9795 28.2293 46.1723 28.3227 46.3818 28.4241C46.3294 28.5324 46.2782 28.638 46.2241 28.7498C46.3506 28.8627 46.4945 28.9038 46.6438 28.9708C46.7058 28.8643 46.7649 28.7628 46.8322 28.6471C47.0087 28.7325 47.1784 28.8147 47.365 28.905C47.3126 29.0132 47.2612 29.1195 47.2056 29.2342C47.3667 29.3493 47.5378 29.4046 47.716 29.4944C47.7767 29.3843 47.8334 29.2815 47.8983 29.1638C48.1132 29.2679 48.3265 29.3711 48.5538 29.4811C48.5065 29.5937 48.4586 29.7075 48.4085 29.8268C48.6351 29.9365 48.8494 30.0403 49.0763 30.1501C49.1318 30.0354 49.1829 29.9298 49.239 29.814C49.4169 29.9001 49.5825 29.9803 49.7665 30.0694C49.7153 30.1896 49.6649 30.308 49.6129 30.43C49.8413 30.5406 50.0562 30.6446 50.2859 30.7558C50.3517 30.6344 50.4106 30.5259 50.475 30.407C50.6821 30.5073 50.8808 30.6035 51.0982 30.7087C51.0515 30.8254 51.0036 30.9449 50.9532 31.0707C51.1333 31.1579 51.3046 31.2409 51.4951 31.333C51.5542 31.2109 51.6078 31.1002 51.6682 30.9754C51.8253 31.0514 51.9635 31.1183 52.1126 31.1905C52.0445 31.3968 51.9758 31.605 51.9018 31.8293C51.8364 31.802 51.7754 31.7797 51.7172 31.7516C50.1746 31.0042 48.6326 30.2554 47.0896 29.5087C44.3895 28.2019 41.6888 26.8962 38.9882 25.5903C37.9014 25.0648 36.8142 24.5401 35.7272 24.0152C35.7272 24.0153 35.7293 24.022 35.7293 24.022Z" fill="#ce203d"/>
<path d="M9.99424 11.304C9.63823 11.1317 9.2822 10.9593 8.90219 10.7754C8.79326 11.0004 8.69034 11.213 8.58743 11.4256C8.56326 11.4271 8.53908 11.4285 8.51493 11.43C8.52042 11.4066 8.52327 11.3822 8.53177 11.3599C8.67874 10.9765 8.83285 10.5953 9.09553 10.2733C9.342 9.97117 9.72307 9.86081 10.0894 9.99703C10.36 10.0976 10.6199 10.2273 10.8834 10.3466C11.0537 10.4237 11.224 10.5013 11.3903 10.5867C11.4934 10.6396 11.5908 10.652 11.7025 10.6148C11.805 10.5808 11.9131 10.563 12.0194 10.5415C12.143 10.5165 12.2586 10.5341 12.3681 10.623C12.3657 10.6594 12.3718 10.703 12.3591 10.7402C12.2488 11.062 12.2645 11.3936 12.2781 11.7252C12.2809 11.7914 12.2819 11.8579 12.2891 11.9237C12.3102 12.1168 12.264 12.2907 12.1366 12.4615C11.5895 12.2146 11.0384 11.966 10.4721 11.7104C10.4463 11.7531 10.4197 11.7905 10.4 11.8312C10.3053 12.0266 10.2146 12.2239 10.1177 12.4181C10.0863 12.481 10.04 12.5365 9.99491 12.6039C9.46927 12.3494 8.95626 12.1011 8.42221 11.8426C8.48542 11.7077 8.54373 11.5774 8.60699 11.4497C8.68726 11.2875 8.76917 11.1261 8.85478 10.9668C8.93059 10.8256 8.9506 10.8246 9.09355 10.8951C9.38931 11.0409 9.68686 11.1831 9.98368 11.3268C9.98721 11.3192 9.99073 11.3116 9.99424 11.304ZM11.1621 11.8526C11.1597 11.8578 11.1572 11.863 11.1547 11.8682C11.3966 11.9852 11.6385 12.1023 11.8803 12.2194C11.8828 12.2142 11.8853 12.2091 11.8878 12.2039C11.6459 12.0868 11.404 11.9697 11.1621 11.8526ZM10.2055 11.4291C10.2062 11.4331 10.2069 11.4372 10.2076 11.4412C10.286 11.4792 10.3644 11.5171 10.4428 11.5551C10.4442 11.5521 10.4456 11.5491 10.447 11.546C10.3665 11.5071 10.286 11.4681 10.2055 11.4291Z" fill="#ce203d"/>
<path d="M53.9028 31.5397C53.8593 31.6294 53.8234 31.7037 53.7823 31.7885C53.9734 31.881 54.1538 31.9683 54.3433 32.0601C54.3912 31.9782 54.4331 31.9067 54.4817 31.8239C54.6385 31.8998 54.7923 31.9742 54.9571 32.054C54.9355 32.1222 54.9145 32.1887 54.8909 32.2634C54.9354 32.2975 54.9769 32.3292 55.0278 32.3681C54.9231 32.5531 54.8211 32.7335 54.7084 32.9329C53.7998 32.5428 52.9302 32.076 52.0134 31.6554C52.1303 31.3707 52.2424 31.0974 52.3601 30.8105C52.5171 30.8738 52.6492 30.927 52.7967 30.9865C52.751 31.0808 52.7105 31.1646 52.6647 31.2591C52.8543 31.3509 53.0297 31.4358 53.2166 31.5263C53.2681 31.4405 53.3133 31.3653 53.3649 31.2793C53.5407 31.3644 53.7104 31.4466 53.9028 31.5397ZM52.3636 31.2434C52.4049 31.2634 52.4463 31.2834 52.4876 31.3035C52.4463 31.2835 52.4049 31.2634 52.3636 31.2434Z" fill="#ce203d"/>
<path d="M31.4731 19.4261C31.4937 19.2473 31.5916 19.1031 31.6696 18.9535C31.8432 18.9828 32.8667 19.4834 33.0122 19.612C32.9505 19.7393 32.8863 19.8719 32.8097 20.0302C32.7341 20.0053 32.6414 19.9853 32.558 19.9457C32.1939 19.7728 31.8325 19.5944 31.4701 19.418C31.4701 19.418 31.4731 19.4261 31.4731 19.4261Z" fill="#ce203d"/>
<path d="M59.2215 35.5039C59.2109 35.4632 59.181 35.4152 59.1937 35.3854C59.248 35.2582 59.3149 35.1364 59.3775 35.0127C59.3829 35.0021 59.3902 34.992 59.3983 34.9832C59.4525 34.9247 59.8815 34.8535 59.9548 34.8902C60.0156 34.9206 60.0305 34.9799 60.0028 35.0276C59.9555 35.1091 59.9047 35.2031 59.8294 35.2512C59.6495 35.3659 59.5361 35.5332 59.4318 35.706C59.3198 35.8914 59.2291 36.0897 59.1298 36.2827C59.1027 36.3355 59.078 36.3894 59.0457 36.456C58.9442 36.4069 58.8561 36.3643 58.7529 36.3143C58.784 36.2374 58.8093 36.1648 58.842 36.0957C58.922 35.9267 59.0042 35.7587 59.0881 35.5916C59.1285 35.511 59.1312 35.5123 59.2215 35.5039Z" fill="#ce203d"/>
<path d="M13.9861 20.9668C13.7377 20.8466 13.5283 20.7452 13.2895 20.6296C13.4367 20.6267 13.8184 20.8155 13.9861 20.9668Z" fill="#ce203d"/>
<path d="M56.6837 33.0304C56.8271 33.0984 56.883 33.2072 56.8295 33.314C56.7695 33.4335 56.5953 33.4947 56.4691 33.4405C56.3583 33.393 56.2941 33.2079 56.3502 33.098C56.4052 32.9903 56.5411 32.9628 56.6837 33.0304Z" fill="#ce203d"/>
</g>
<defs>
<clipPath id="clip0_12076_30393">
<rect width="67" height="67" fill="#ce203d" transform="translate(0.5)"/>
</clipPath>
</defs>
</svg>