<?xml version="1.0" encoding="UTF-8"?>
<svg xmlns="http://www.w3.org/2000/svg" fill="white" id="Layer_1" data-name="Layer 1" viewBox="0 0 24 24">
  <path d="M3.516,3.516l-.436,1.09c-.186,.515-.975,.515-1.161,0l-.438-1.097-1.099-.463c-.512-.195-.497-.984,.021-1.16l1.082-.41L1.92,.393C2.106-.122,2.894-.122,3.08,.393l.436,1.09,1.09,.436c.515,.186,.515,.975,0,1.161l-1.09,.436Zm.442,4.64l1.318,.556,.526,1.316c.223,.618,1.17,.618,1.393,0l.523-1.308,1.308-.523c.618-.223,.618-1.17,0-1.393l-1.308-.523-.523-1.308c-.223-.618-1.17-.618-1.393,0l-.52,1.301-1.299,.492c-.622,.212-.64,1.158-.026,1.392Zm17.01,1.343C20.969,4.262,16.945,0,12,0c-1.593,0-3.158,.448-4.526,1.297-.47,.29-.614,.907-.323,1.376,.29,.469,.906,.617,1.376,.323,1.053-.651,2.254-.996,3.474-.996,3.843,0,6.969,3.364,6.969,7.5s-3.126,7.5-6.969,7.5c-2.723,0-5.212-1.724-6.343-4.391-.217-.509-.805-.744-1.312-.53-.508,.216-.746,.803-.53,1.312,1.228,2.895,3.735,4.904,6.623,5.448l-.491,2.702c-.233,1.281,.751,2.46,2.053,2.46s2.286-1.179,2.053-2.46l-.49-2.694c4.202-.787,7.406-4.673,7.406-9.346Z"/>
</svg>
