<svg xmlns:xlink="http://www.w3.org/1999/xlink" xmlns="http://www.w3.org/2000/svg" width="68" height="67" viewBox="0 0 68 67" fill="none">
<path d="M55.9796 32.7052C58.1835 41.5121 61.6148 55.2448 61.6148 55.2448C61.7445 55.7633 61.6278 56.3129 61.2988 56.7341C60.9699 57.1556 60.4649 57.4019 59.9304 57.4019H43.1928C42.3961 57.4019 41.7016 56.8596 41.5084 56.0867L38.1177 42.5241H33.8942C29.4287 42.5241 25.7 39.3168 24.8859 35.0851H15.2969C14.6392 35.0851 14.0381 34.7136 13.7439 34.1253L12.2406 31.1187H55.9023C55.8257 31.6383 55.8493 32.1759 55.9796 32.7052ZM36.258 35.0851H28.4626C29.1989 37.383 31.355 39.0516 33.8941 39.0516H37.2495L36.258 35.0851Z" fill="#ce203d"/>
<path d="M4.13847 13.0154H6.12163V12.892C6.20705 10.5907 9.50954 10.5925 9.59415 12.892V13.0154H24.1234L30.8068 19.6989C31.4848 20.3769 32.5842 20.3769 33.2622 19.6989C33.9403 19.021 33.9403 17.9216 33.2622 17.2435L29.0342 13.0154H33.4219L40.1054 19.6989C40.7834 20.3769 41.8828 20.3769 42.5608 19.6989C43.2389 19.021 43.2389 17.9216 42.5608 17.2435L38.3328 13.0154H42.7206L49.404 19.6989C50.0821 20.3769 51.1815 20.3769 51.8594 19.6989C52.5375 19.021 52.5375 17.9216 51.8594 17.2435L47.6314 13.0154H54.4747V12.892C54.5601 10.5907 57.8626 10.5925 57.9472 12.892V14.0325L61.1581 17.2435C61.4837 17.569 61.6666 18.0107 61.6666 18.4712V25.9101C61.6666 26.869 60.8892 27.6464 59.9304 27.6464H4.13847C3.17959 27.6464 2.40221 26.869 2.40221 25.9101V14.7517C2.40221 13.7927 3.17959 13.0154 4.13847 13.0154Z" fill="#ce203d"/>
</svg>