<svg xmlns:xlink="http://www.w3.org/1999/xlink" xmlns="http://www.w3.org/2000/svg" width="68" height="67" viewBox="0 0 68 67" fill="none">
<g clip-path="url(#clip0_12076_30420)">
<path d="M64.1321 47.5263C63.625 45.0357 62.0364 41.2334 59.148 37.7781C58.923 37.5086 58.6894 37.2407 58.4506 36.9764C56.76 35.1053 54.7738 33.3722 53.1984 31.997C52.1373 31.0707 51.2802 30.3217 50.8001 29.7907C50.5379 29.5011 50.39 29.2775 50.2519 29.0664C49.6418 28.1406 49.2548 27.703 43.6644 25.5114C41.1548 24.5273 37.5805 23.1863 33.3204 21.6146C25.5195 18.7366 15.4093 15.0832 5.30081 11.4296C5.11578 11.3629 4.9105 11.457 4.84121 11.6426L3.0205 16.5345C2.95845 16.7005 3.02658 16.8875 3.18188 16.9743L4.12831 17.5028L5.07688 21.7632C5.1026 21.8771 5.18171 21.9717 5.29004 22.0172L34.0532 34.0197C34.0571 34.022 34.062 34.0238 34.0669 34.0256C34.1146 34.0432 34.1669 34.0505 34.2179 34.0462L35.5616 33.9473L42.5857 36.7165C42.5918 36.7195 42.5973 36.724 42.6036 36.7263C43.3276 37.592 44 38.4076 44.3461 39.1331C44.6879 39.8506 44.7133 40.4905 44.7357 41.201L44.7362 41.2083C44.7401 41.3102 44.786 41.406 44.8639 41.4714C46.2212 42.617 47.6491 43.8301 49.0158 44.3343C49.3287 44.4498 49.6442 44.5303 49.9599 44.5646C51.567 44.7391 52.9968 43.6788 54.2798 42.6728C54.5247 42.9185 54.6778 43.1129 54.7134 43.3166C54.7608 43.5899 54.6177 43.954 54.3954 44.4682C54.3318 44.6145 54.373 44.7859 54.4963 44.888C55.0271 45.3269 55.4104 45.662 55.5072 45.9592C55.5887 46.2093 55.4675 46.4946 55.2273 46.9663L55.2258 46.9705L55.2248 46.9709C55.168 47.0839 55.1739 47.2192 55.2417 47.3271C55.6944 48.0401 56.0163 48.5805 55.9945 48.9335C55.9767 49.2235 55.6889 49.4593 55.1527 49.8346C55.0162 49.9301 54.9638 50.1068 55.0247 50.2616C55.252 50.838 55.5042 51.4874 56.0483 52.05C56.5768 52.5965 57.3688 53.0466 58.0965 53.4617L58.1037 53.4659C58.1213 53.4764 58.139 53.4846 58.158 53.4916C58.2183 53.5138 58.2832 53.5194 58.3475 53.5073L63.1981 52.6074C63.3076 52.5873 63.4011 52.5174 63.452 52.4182C64.0428 51.2684 64.6503 50.0689 64.1321 47.5263ZM52.0152 41.6986C51.9942 41.7403 51.9647 41.7836 51.9269 41.8278C51.8771 41.8979 51.8155 41.9741 51.7442 42.0593C51.4124 42.3171 51.1188 42.4798 50.8582 42.5574C50.8322 42.5654 50.8005 42.5712 50.7707 42.5786C50.6904 42.5975 50.6061 42.6055 50.5208 42.6099C50.467 42.6132 50.4128 42.6155 50.352 42.6138C50.2441 42.6082 50.1326 42.595 50.0163 42.5688C49.9946 42.5648 49.9756 42.5626 49.9535 42.5576C49.8431 42.5328 49.7138 42.4899 49.5795 42.4436C49.5301 42.4261 49.4844 42.414 49.4323 42.3932C49.3399 42.3584 49.2393 42.3157 49.1373 42.2724C49.085 42.25 49.0294 42.2279 48.9794 42.2055C48.819 42.1327 48.6486 42.0523 48.4651 41.9599C48.463 41.9591 48.4618 41.9579 48.4597 41.9571C48.3559 41.9037 48.2607 41.8526 48.17 41.8024C47.784 41.5827 47.4979 41.3687 47.3023 41.1643C47.2836 41.1438 47.2619 41.1247 47.2441 41.1037C47.1994 41.0522 47.1584 41.0012 47.1253 40.9507C46.9528 40.6902 46.8825 40.2928 46.9116 39.7711C46.9338 39.4971 46.9631 39.221 47.0198 38.9334L49.5854 39.9365L49.5818 40.0046L49.501 41.6366L51.3085 40.8249L51.3162 40.8214C51.4135 40.8644 51.4882 40.9016 51.5637 40.939C51.7102 41.013 51.8145 41.0738 51.8842 41.1202C51.9498 41.1651 51.9946 41.2143 52.0321 41.264C52.0447 41.2815 52.0649 41.2961 52.074 41.3146C52.0744 41.3155 52.0753 41.3175 52.0758 41.3184C52.0982 41.3657 52.1047 41.4192 52.0991 41.4777C52.0986 41.5006 52.0969 41.5247 52.086 41.5542C52.0855 41.5556 52.0857 41.5572 52.0852 41.5586C52.0702 41.5993 52.0474 41.6459 52.0152 41.6986Z" fill="#ce203d"/>
</g>
<defs>
<clipPath id="clip0_12076_30420">
<rect width="67" height="67" fill="#ce203d" transform="translate(0.416687)"/>
</clipPath>
</defs>
</svg>