<svg xmlns:xlink="http://www.w3.org/1999/xlink" xmlns="http://www.w3.org/2000/svg" width="68" height="67" viewBox="0 0 68 67" fill="none">
<g clip-path="url(#clip0_12076_30389)">
<path d="M63.5756 43.935C63.6662 43.3884 63.6993 42.6735 63.7355 41.8805C63.7873 40.7578 63.8497 39.4366 64.0795 38.05C64.5075 35.4798 65.515 32.6683 66.5414 29.8134C66.583 29.6966 66.5668 29.5675 66.4983 29.4685C66.4298 29.3696 66.3159 29.3137 66.1971 29.3198L61.5603 29.5554L60.8668 25.7869C60.8403 25.6449 60.738 25.5343 60.6026 25.5019L54.9091 24.1482L55.0474 22.3135C55.0617 22.1478 54.9654 21.995 54.8151 21.9417L50.9606 20.5656C50.8686 20.5328 50.7659 20.5407 50.6786 20.5884C50.5896 20.6362 50.5247 20.7186 50.496 20.8163L49.8853 22.9583L9.57547 13.6754L10.4378 10.4351C10.4637 10.3385 10.4504 10.235 10.4028 10.1498C10.3534 10.065 10.2731 10.0042 10.1802 9.98213L8.4211 9.56779C8.23368 9.52331 8.04409 9.64267 7.99223 9.83634L6.1249 16.8409L2.10587 15.8209C2.01325 15.7976 1.91441 15.8138 1.83257 15.8664C1.74975 15.9196 1.69036 16.0033 1.6692 16.1011L1.12524 18.4488C1.07859 18.6451 1.19145 18.8394 1.37708 18.8878L5.92766 20.0717L8.08443 21.9295C8.12379 21.963 8.17016 21.9881 8.2202 22.0015L29.8103 27.8197C28.4557 31.0743 27.0907 34.2959 25.1428 37.3978C23.114 40.627 20.448 43.7365 17.7592 46.8719C17.6399 47.0104 17.6349 47.2167 17.7484 47.3567L20.5967 50.8749C20.6607 50.9545 20.7552 51.0014 20.8553 51.0038C20.9554 51.0066 21.0538 50.9646 21.1238 50.8887C23.4893 48.3635 25.8741 45.8173 27.8734 43.0574C29.8155 40.3757 31.3879 37.4977 32.9399 34.6384L35.9522 35.4279C36.0716 36.858 36.2311 38.3946 37.0818 39.4968C37.2571 39.7258 37.4601 39.9327 37.6834 40.118C38.6051 40.886 39.8839 41.3031 41.0646 41.3377C41.6841 41.3551 42.275 41.2666 42.7855 41.1909C43.5238 41.0818 44.0283 41.0168 44.3925 41.1669C44.4826 41.2043 44.5666 41.2561 44.6492 41.3244C45.1217 41.7187 45.3998 42.5686 45.5527 43.3545C45.7244 44.2349 45.706 44.8578 45.6878 45.5113L45.6886 45.5181C45.6851 45.5913 45.706 45.6631 45.7427 45.7247C46.2629 46.5686 46.7351 47.3429 46.9116 48.0623C47.0844 48.7624 46.9778 49.4333 46.8522 50.1899C46.8327 50.312 46.871 50.4355 46.9583 50.519C47.0447 50.6022 47.1649 50.6352 47.281 50.6062C49.6063 50.0266 52.0632 49.4222 53.2969 48.4913C54.6752 47.4511 54.5483 46.0449 53.8679 44.4075C53.5667 43.6802 53.141 42.8692 52.7332 42.0904C52.2136 41.0962 51.7269 40.1653 51.4998 39.4556C51.43 39.2381 51.3922 39.0502 51.3688 38.875L51.3799 38.2647C51.4659 37.8578 51.7053 37.5669 52.0181 37.2756C52.5873 36.7436 53.346 36.2545 54.1463 35.7484L57.7331 36.6687C57.8602 36.7012 57.9965 36.6574 58.0878 36.5553L59.6969 34.7094C59.7033 34.7035 59.7101 34.6995 59.7159 34.6931L60.9428 35.1696L61.1051 45.2559C61.1087 45.4477 61.2513 45.6017 61.4362 45.6119C62.148 45.6503 63.1614 45.7085 63.5159 44.2335C63.5388 44.1388 63.5581 44.0384 63.5756 43.935ZM44.6666 40.4781C44.0904 40.2406 43.3656 40.359 42.698 40.4582C42.1805 40.5353 41.648 40.613 41.0974 40.5966C40.0471 40.5666 38.9213 40.1917 38.1348 39.5362C37.9491 39.3814 37.7813 39.2109 37.641 39.027C36.9807 38.1701 36.8063 36.9603 36.6844 35.6024C37.4766 35.7767 38.2613 35.9509 39.0015 36.13C39.7228 36.3045 40.3908 36.4827 40.9941 36.6667C40.9982 37.1145 40.9288 37.5838 40.7702 38.0773C40.708 38.2484 40.6105 38.445 40.4798 38.6684C40.3243 38.9186 40.1687 39.1316 40.0122 39.3069C40.0005 39.3206 39.9887 39.3352 39.9791 39.3508C39.8313 39.5762 39.8602 39.7597 40.0633 39.9009C40.0661 39.9033 40.0689 39.9053 40.0731 39.9085C40.1064 39.9292 40.1419 39.9443 40.1789 39.9532C40.2568 39.9721 40.3415 39.9625 40.4173 39.9246C41.3515 39.4501 42.182 38.6125 42.9089 37.4186C44.0634 38.0537 44.2772 38.7734 44.5138 39.6093L44.5166 39.6217L44.5192 39.635C44.6036 39.9331 44.6916 40.2408 44.7783 40.5465C44.7391 40.5261 44.7083 40.4951 44.6666 40.4781Z" fill="#ce203d"/>
</g>
<defs>
<clipPath id="clip0_12076_30389">
<rect width="67" height="67" fill="#ce203d" transform="translate(0.333374)"/>
</clipPath>
</defs>
</svg>