<svg xmlns:xlink="http://www.w3.org/1999/xlink" xmlns="http://www.w3.org/2000/svg" width="68" height="67" viewBox="0 0 68 67" fill="none">
<g clip-path="url(#clip0_12076_30378)">
<path d="M28.1555 19.1723C27.138 18.8925 26.54 17.8409 26.8198 16.8234L27.8326 13.1406C28.1131 12.1239 29.165 11.5258 30.1822 11.8046L35.7091 13.3244L33.6829 20.6924L28.1555 19.1723Z" fill="#ce203d"/>
<path d="M56.2974 24.9305C56.0176 25.948 54.966 26.546 53.9486 26.2661L48.4211 24.746L47.4076 28.4317L36.3528 25.3926C38.4265 17.8589 37.4138 21.5346 39.393 14.3372L43.0784 15.3505L43.5849 13.5085C43.8647 12.4912 44.9163 11.8931 45.9338 12.1729C46.9512 12.4527 47.5491 13.5043 47.2694 14.5217L46.763 16.3634L55.9747 18.896C56.9914 19.1765 57.5895 20.2285 57.3107 21.2457L56.2974 24.9305Z" fill="#ce203d"/>
<path d="M-3.31786 22.4075C-4.33569 22.1276 -4.93321 21.0768 -4.65331 20.059C-4.37341 19.0411 -3.32261 18.4436 -2.30478 18.7235L13.2336 22.9965L13.7404 21.1537C14.0203 20.1358 15.0711 19.5383 16.0889 19.8182C17.1068 20.0981 17.7049 21.15 17.425 22.1679L16.9187 24.009C17.1277 24.0663 48.2405 32.5962 48.2662 32.6033C48.756 32.738 49.1715 33.0615 49.422 33.5022L52.0936 38.2004C52.6149 39.1172 53.7821 39.4382 54.6989 38.9168C55.6158 38.3955 55.9367 37.2283 55.4154 36.3115L54.4798 34.6661C54.6291 34.6491 55.0397 34.494 55.6066 34.648L70.3443 38.7009C71.361 38.9814 71.9592 40.0333 71.6804 41.0505L68.6406 52.1042C68.2942 53.3606 66.8175 53.9102 65.7343 53.1854L56.6752 47.1183L51.6282 49.9881C48.8888 51.5459 45.3812 50.5878 43.8033 47.8438L42.5988 45.7256C41.4973 48.3315 38.6025 49.7886 35.8008 49.0182C32.7543 48.1804 30.9567 45.0191 31.7938 41.9714L32.3003 40.1332C32.3003 40.1332 12.0526 34.5627 12.0367 34.557C11.0189 34.2771 10.4208 33.2252 10.7007 32.2074C10.9806 31.1895 12.0314 30.592 13.0492 30.8719L17.4384 32.0789L16.6097 27.8875C12.3261 26.7096 4.8008 24.6401 -3.31786 22.4075ZM36.8149 45.3338C37.8308 45.6131 38.8845 45.014 39.1637 43.9981L39.6687 42.1619L35.9845 41.1476L35.4792 42.9848C35.1999 44.0007 35.7991 45.0544 36.8149 45.3338Z" fill="#ce203d"/>
</g>
<defs>
<clipPath id="clip0_12076_30378">
<rect width="67" height="67" fill="#ce203d" transform="translate(0.166626)"/>
</clipPath>
</defs>
</svg>