<?xml version="1.0" encoding="UTF-8"?>
<svg xmlns="http://www.w3.org/2000/svg" fill="white" viewBox="0 0 24 24">
  <path d="m20,1v7h-6v-1.893c0-.996-.681-1.92-1.664-2.08-1.253-.204-2.336.758-2.336,1.973v2h-6V1c0-.552.448-1,1-1h0c.552,0,1,.448,1,1v1h2V1c0-.552.448-1,1-1h0c.552,0,1,.448,1,1v1h4V1c0-.552.448-1,1-1h0c.552,0,1,.448,1,1v1h2V1c0-.552.448-1,1-1h0c.552,0,1,.448,1,1ZM2,13v3h8v-1.893c0-.996.681-1.92,1.664-2.08,1.253-.204,2.336.758,2.336,1.973v2h8v-3c0-1.657-1.343-3-3-3H5c-1.657,0-3,1.343-3,3ZM0,21v2c0,.552.448,1,1,1h9v-2.498c0-.297.105-.596.326-.794,1.701-1.526,3.674-.348,3.674,1.292v2h9c.552,0,1-.448,1-1v-2c0-1.657-1.343-3-3-3H3c-1.657,0-3,1.343-3,3Z"/>
</svg>
