<svg xmlns="http://www.w3.org/2000/svg" xmlns:xlink="http://www.w3.org/1999/xlink" viewBox="0 0 329.75 122.03" width="329.75"  height="122.03"><defs><style>.cls-1{fill:#efefef;}.cls-2{fill:url(#linear-gradient);}.cls-3{fill:url(#linear-gradient-2);}.cls-4{fill:url(#linear-gradient-3);}</style><linearGradient id="linear-gradient" x1="160.87" y1="122.03" x2="160.87" y2="78.15" gradientUnits="userSpaceOnUse"><stop offset="0" stop-color="#36aeff"/><stop offset="1" stop-color="#14d2ff"/></linearGradient><linearGradient id="linear-gradient-2" x1="278.45" y1="98.27" x2="287.79" y2="76.62" gradientTransform="matrix(1, 0, 0.43, 1, -34.08, 0)" xlink:href="#linear-gradient"/><linearGradient id="linear-gradient-3" x1="307.61" y1="98.16" x2="316.83" y2="76.78" gradientTransform="matrix(1, 0, 0.43, 1, -34.08, 0)" xlink:href="#linear-gradient"/></defs><g id="Layer_2" data-name="Layer 2"><g id="Crash_Concept_Image" data-name="Crash Concept Image"><path class="cls-1" d="M27.7,36.12c.48-1.29,1.22-1.93,2.21-1.93H65.38l3.37-11.93H25.6a9.83,9.83,0,0,0-6.2,2.66,17.13,17.13,0,0,0-4.89,6.7L1.38,63.09C0,66.32-.33,69.1.31,71.39a4.26,4.26,0,0,0,4.46,3.5H54.68l3.5-13.52H19.47c-1.08,0-1.33-.77-.76-2.28Z"/><path class="cls-1" d="M129.19,24.92a5.6,5.6,0,0,0-4.83-2.66H75.93L63,74.89H79.62l3.61-17.75h0a23.36,23.36,0,0,1,18.84,9.54l6,8.21h18.46s-6.27-11.17-14-17.75h7.79c2.53,0,4.14-1,5.85-3.1a13.28,13.28,0,0,0,2.95-7.37l1.52-15A9.82,9.82,0,0,0,129.19,24.92Zm-13.84,11.2L114,43.75c-.19,1.35-.79,2-1.8,2H85.61l2.56-11.58h26C115.12,34.19,115.53,34.83,115.35,36.12Z"/><path class="cls-1" d="M251.37,63.09,248.64,52a15.91,15.91,0,0,0-4.07-7.5,8.55,8.55,0,0,0-6.11-3H209.57c-1,0-1.62-.67-1.8-2l-.43-3.36c-.18-1.29.23-1.93,1.21-1.93h27c4.3,0,7.06-6.6,6-10.78l-.28-1.15H198.18a5.6,5.6,0,0,0-4.83,2.66,9.87,9.87,0,0,0-1.46,6.7l1,9.88a13.16,13.16,0,0,0,3,7.38,7.54,7.54,0,0,0,5.87,3.1h29.74c1,0,1.71.72,2,2.17l1.35,6.66c.31,1.52-.07,2.28-1.15,2.28H208.42a10.74,10.74,0,0,0-9.38,5.5l-3.53,6.3H246a5.26,5.26,0,0,0,5.06-3.5A12.59,12.59,0,0,0,251.37,63.09Z"/><path class="cls-1" d="M299.78,22.26H285.4l7.2,19.24H268.87l-6-19.24H248.52l14.07,52.63h16.63L272.12,52h24.4l8.58,22.91h16.63Z"/><path class="cls-1" d="M189.17,58.72a12,12,0,0,0-2-2l-3.74-3.1C190.78,17.18,161.66.44,160.85,0h0c-.82.44-29.94,17.18-22.6,53.57l-3.74,3.1a11.7,11.7,0,0,0-2,2c-6.19,8.29,2.91,18.16,2.91,18.16s12.09-11,25.42-11h0c13.32,0,25.41,11,25.41,11S195.36,67,189.17,58.72Zm-19-9.33s-5.47-1.83-9.35-1.84h0c-3.89,0-9.36,1.84-9.36,1.84-2.67-19.33,8.89-29.17,9.36-29.59h0C161.31,20.22,172.87,30.06,170.2,49.39Z"/><path class="cls-2" d="M166.14,78.15s-2.79,8.52-5.27,13.95c-2.49-5.43-5.28-13.95-5.28-13.95a23.07,23.07,0,0,0-9.77,5.58A324.81,324.81,0,0,0,160.87,122a325.69,325.69,0,0,0,15-38.3A23.07,23.07,0,0,0,166.14,78.15Z"/><path class="cls-3" d="M300.3,95.73H280.44a4.21,4.21,0,0,1-2.63-1,4.55,4.55,0,0,1-1.65-2.35l-2.83-9.68a2.48,2.48,0,0,1,.28-2.25,2.37,2.37,0,0,1,2-.91h19.28l1,3.16H280.44q-.65,0-.45.63l2.55,8.4a.84.84,0,0,0,.86.65h9.22l-1.06-3.27H285l-1-3.22h13Z"/><path class="cls-4" d="M329.75,95.73H309.89a4.43,4.43,0,0,1-2.68-1,4.9,4.9,0,0,1-1.76-2.35l-3.29-9.68a2.4,2.4,0,0,1,.17-2.25,2.22,2.22,0,0,1,2-.91h19.28l1.2,3.16H309.27c-.43,0-.57.21-.43.63l3,8.4a.89.89,0,0,0,.89.65h9.22l-1.21-3.27h-6.55L313,85.93h13Z"/></g></g></svg>