<svg xmlns:xlink="http://www.w3.org/1999/xlink" data-v-c1a58566="" width="680" height="300" viewBox="0 0 68 30" fill="none" xmlns="http://www.w3.org/2000/svg" class=""><path data-v-c1a58566="" d="M25.4348 14.3981V22.8705L12.8565 30H12.6627L0 22.8876V8.72874L12.8068 15.9705L25.4348 8.85492V11.5953L12.7199 18.8687L2.59316 13.0943V21.4129L12.7571 27.158L22.9435 21.3616V18.6197L12.7571 24.4136V21.5667L25.4348 14.3981Z" fill="#00E98D"></path><path data-v-c1a58566="" d="M15.3056 11.9663L12.8093 13.3898L1.10035 6.7193L12.9683 0H13.162L24.6896 6.52397L21.9921 8.04509L13.0651 2.83714L6.18482 6.71441L15.3056 11.9663Z" fill="#00E98D"></path><path data-v-c1a58566="" d="M31.3047 11.8425C31.3047 12.8626 31.789 13.3694 32.7641 13.3694H36.9852C37.9603 13.3694 38.4446 12.8626 38.4446 11.8425V7.60855H34.7339V9.31546H36.6121V11.7025H33.34V4.60147H36.514V6.13501H37.1422L38.4446 6.02167V4.45478C38.4446 3.44797 37.9603 2.94124 36.9852 2.93457H32.7772C31.7955 2.93457 31.3047 3.44131 31.3047 4.45478V11.8425Z" fill="#FFFFFF"></path><path data-v-c1a58566="" d="M40.0508 11.8425C40.0508 12.8626 40.5351 13.3694 41.5102 13.3694H45.6658C46.6409 13.3694 47.1252 12.8626 47.1252 11.8425V9.98222L45.9734 9.88887H45.1946V11.7025H42.0861V4.60147H45.1946V6.38838H45.9603L47.1252 6.30837V4.45478C47.1252 3.44797 46.6409 2.94124 45.6658 2.93457H41.5233C40.5416 2.93457 40.0508 3.44131 40.0508 4.45478V11.8425Z" fill="#FFFFFF"></path><path data-v-c1a58566="" d="M31.3047 23.7585L32.6315 23.6385H33.2583V25.3987H36.2454V23.1851L32.8049 22.285C32.5337 22.2139 32.3048 22.1338 32.1181 22.0449C31.9314 21.9516 31.7825 21.836 31.6714 21.6982C31.5647 21.5604 31.4847 21.396 31.4314 21.2048C31.3825 21.0137 31.358 20.7781 31.358 20.4981V18.0644C31.358 17.1087 31.8359 16.6309 32.7916 16.6309H36.8588C37.8056 16.6309 38.279 17.1087 38.279 18.0644V19.8313L37.0121 19.9513H36.3454V18.2978H33.3516V20.3447L36.7921 21.2915C37.0499 21.3626 37.2722 21.4404 37.4589 21.5249C37.6456 21.6049 37.7967 21.7071 37.9123 21.8316C38.0323 21.9516 38.119 22.1072 38.1723 22.2983C38.2256 22.4895 38.2523 22.7317 38.2523 23.0251V25.6321C38.2523 26.5878 37.7789 27.0656 36.8321 27.0656H32.7382C31.7825 27.0656 31.3047 26.5878 31.3047 25.6321V23.7585Z" fill="#FFFFFF"></path><path data-v-c1a58566="" d="M39.7392 16.6309H41.8128V20.9448H42.1862L44.7399 16.6309H46.9069V16.8776L43.8531 21.6582L47.2402 26.8189V27.0656H44.7932L42.1862 22.5984H41.8128V27.0656H39.7392V16.6309Z" fill="#FFFFFF"></path><path data-v-c1a58566="" d="M48.1404 27.0656H50.214V16.6309H48.1404V27.0656Z" fill="#FFFFFF"></path><path data-v-c1a58566="" d="M51.9942 27.0656H53.9345V22.8451C53.9345 22.645 53.93 22.4161 53.9212 22.1583C53.9123 21.896 53.9012 21.6338 53.8878 21.3715C53.8745 21.1093 53.8545 20.8492 53.8278 20.5914C53.8056 20.3292 53.7856 20.098 53.7678 19.898H53.8812L57.0216 27.0656H59.4353V16.6309H57.515V20.8915C57.515 21.0915 57.5194 21.3204 57.5283 21.5782C57.5372 21.8316 57.5506 22.0916 57.5683 22.3583C57.5861 22.6206 57.6061 22.8762 57.6283 23.1251C57.6506 23.374 57.6706 23.6007 57.6884 23.8052H57.5817L54.4279 16.6309H51.9942V27.0656Z" fill="#FFFFFF"></path><path data-v-c1a58566="" d="M60.8821 23.7585L62.209 23.6385H62.8357V25.3987H65.8228V23.1851L62.3823 22.285C62.1112 22.2139 61.8823 22.1338 61.6956 22.0449C61.5089 21.9516 61.36 21.836 61.2488 21.6982C61.1422 21.5604 61.0622 21.396 61.0088 21.2048C60.9599 21.0137 60.9355 20.7781 60.9355 20.4981V18.0644C60.9355 17.1087 61.4133 16.6309 62.369 16.6309H66.4362C67.383 16.6309 67.8564 17.1087 67.8564 18.0644V19.8313L66.5896 19.9513H65.9228V18.2978H62.9291V20.3447L66.3696 21.2915C66.6274 21.3626 66.8496 21.4404 67.0363 21.5249C67.223 21.6049 67.3741 21.7071 67.4897 21.8316C67.6097 21.9516 67.6964 22.1072 67.7497 22.2983C67.8031 22.4895 67.8298 22.7317 67.8298 23.0251V25.6321C67.8298 26.5878 67.3564 27.0656 66.4096 27.0656H62.3157C61.36 27.0656 60.8821 26.5878 60.8821 25.6321V23.7585Z" fill="#FFFFFF"></path></svg>