<svg xmlns="http://www.w3.org/2000/svg" xmlns:xlink="http://www.w3.org/1999/xlink" version="1.1" id="Layer_1" x="0px" y="0px" viewBox="0 0 289 132" style="enable-background:new 0 0 289 132;" xml:space="preserve" width="289"  height="132">
<style type="text/css">
	.st0{fill:#F1F2F2;}
	.st1{fill:#CB1B2B;}
</style>
<path class="st0" d="M114,15.6l-4.4,5.4C87.7,3.1,57.2,2.4,35.4,19.1c-19.8,15.1-28,41.7-21.7,66l5.8-3.4l0,22.6L0.3,92.9l7.1-4.2  c-7.9-27.4,1.1-57.9,23.7-75.2C55.5-5.1,89.6-4.3,114,15.6z M185.5,100.3c1.7-0.8,2.9-2.2,3.6-3.9h0.4v3.1c0,0.2,0,0.3,0,0.5  c0.1,1,1,1.6,2,1.5h7.9c0.2,0,0.3,0,0.5,0c0.9-0.2,1.6-1,1.4-2V36.8c0-0.2,0-0.3,0-0.5c-0.1-1-1-1.6-2-1.5h-7.9c-0.2,0-0.3,0-0.5,0  c-0.9,0.2-1.6,1-1.4,2v21.5h-0.4c-0.7-1.7-2-3.1-3.6-3.9c-1.7-0.9-3.6-1.3-5.5-1.3h-3.8c-4.8,0-8.4,1.3-10.8,4  c-2.4,2.7-3.7,6.5-3.7,11.5v17.5c0,5,1.2,8.8,3.7,11.5c2.4,2.7,6.1,4,10.8,4h3.8C182,101.6,183.8,101.2,185.5,100.3z M189.5,83.9  c0,4.8-2.1,7.2-6.4,7.2H179c-2,0-3.4-0.4-4.2-1.3s-1.2-2.3-1.2-4.3V69.2c0-2,0.4-3.5,1.2-4.3s2.2-1.3,4.2-1.3h4.2  c4.3,0,6.4,2.4,6.4,7.2L189.5,83.9L189.5,83.9z M30.1,60.4h8.2c1.3,0,1.9-0.5,1.9-1.4v-6.2c0-0.9-0.6-1.3-1.9-1.3h-8.2  c-1.3,0-1.9,0.5-1.9,1.4V59C28.2,59.9,28.9,60.4,30.1,60.4z M30.2,100.7h8.1c0.5,0,1-0.1,1.5-0.3c0.3-0.3,0.5-0.7,0.4-1.2V66.5  c0-1-0.7-1.5-2-1.5h-8.1c-1.3,0-1.9,0.5-1.9,1.5v32.8C28.2,100.3,28.9,100.7,30.2,100.7z M150.9,53.1c1,0.1,1.7,1,1.6,2v44.5  c0,0.2,0,0.3,0,0.5c-0.1,1-1,1.7-2,1.5h-7.8c-0.2,0-0.3,0-0.5,0c-0.9-0.2-1.6-1-1.4-2v-3.1h-0.4c-0.7,1.7-2,3.1-3.6,3.9  c-1.7,0.8-3.6,1.3-5.5,1.3H129c-4.9,0-8.7-1.3-11.3-4c-2.7-2.7-4-6.5-4-11.5V68.6c0-5,1.3-8.8,4-11.5c2.7-2.7,6.4-4,11.3-4h21.4  C150.6,53.1,150.8,53.1,150.9,53.1z M140.7,64.6c0-0.6-0.4-1-1.1-1h-8.7c-2,0-3.4,0.4-4.2,1.3s-1.2,2.3-1.2,4.3v16.4  c0,2,0.4,3.5,1.2,4.3s2.2,1.3,4.2,1.3h3.4c4.3,0,6.4-2.4,6.4-7.2L140.7,64.6z M93,101.6c0.9-0.1,1.6-1,1.4-2V71  c0-4.9,2.1-7.4,6.4-7.4h6.4c0.5,0.1,1,0,1.4-0.3c0.3-0.5,0.5-1,0.4-1.6v-6.6c0-1.3-0.6-2-1.9-2h-3.4c-1.9,0-3.8,0.5-5.5,1.3  c-1.7,0.8-2.9,2.2-3.6,3.9h-0.4v-3.2c0-0.2,0-0.3,0-0.5c-0.1-1-1-1.6-2-1.5h-7.9c-0.2,0-0.3,0-0.5,0c-1,0.1-1.6,1-1.5,2v44.5  c0,0.2,0,0.3,0,0.5c0.1,1,1,1.6,2,1.5h7.9C92.7,101.6,92.9,101.6,93,101.6z M69,99.4V47.3c0-0.1,0-0.2,0-0.3  c0.1-0.5,0.6-0.9,1.1-0.9h10.6c1.3,0,1.9-0.7,1.9-2.2v-7.1c0-1.4-0.6-2.2-1.9-2.2H45.6c-1.4,0-2,0.7-2,2.2V44c0,1.5,0.7,2.2,2,2.2  h10.6c0.7,0,1,0.4,1,1.1v52.1c0,1.5,0.6,2.2,2,2.2h7.8C68.4,101.6,69,100.9,69,99.4z M244.8,101.6c0.4-0.4,0.4-0.9,0.4-1.4l0-6.3  c0-1.4-0.7-2.1-2-2.1h-18.8c-2,0-3.4-0.4-4.2-1.3s-1.3-2.2-1.3-4.2v-2.1c0-0.7,0.4-1,1.1-1h23.3c0.2,0,0.3,0,0.5,0  c0.9-0.2,1.6-1,1.4-2V69.1c0-5-1.3-8.8-4-11.5c-2.7-2.7-6.4-4-11.3-4h-7.3c-4.9,0-8.7,1.3-11.3,4c-2.7,2.7-4,6.5-4,11.5v17.5  c0,5,1.3,8.8,4,11.5c2.7,2.7,6.4,4,11.3,4h20.5C243.8,102.2,244.4,102,244.8,101.6z M220.2,75.1c-0.1,0-0.2,0-0.3,0  c-0.5-0.1-0.9-0.5-0.8-1v-4.6c0-2,0.4-3.5,1.2-4.3s2.2-1.2,4.2-1.2h3.9c2,0,3.4,0.4,4.2,1.2s1.2,2.3,1.2,4.3v4.6c0,0.1,0,0.1,0,0.2  c0,0.5-0.5,0.9-1,0.8L220.2,75.1L220.2,75.1z"/>
<path class="st1" d="M134.1,40.3c1.6,4,2.9,8.3,3.6,12.9h-7.1c-0.7-3.5-1.8-6.9-3-10.1l-5.7,2.4l2.4-19l15,11.7L134.1,40.3z   M116.7,114.2c14-13.1,21.9-31.4,21.8-50.6h-7c0,17.2-7.1,33.7-19.6,45.5c-21.5,20.2-55.7,21.2-79.3,2.2l-4.4,5.5  c12.2,9.8,27.4,15.2,43.1,15.2C88.1,132,104.4,125.7,116.7,114.2z M267.3,111.3c-1.4,1.2-3.2,1.8-5.1,1.7h-8.1c-0.2,0-0.5,0-0.7-0.2  c-0.1-0.2-0.2-0.4-0.2-0.6v-2.8c-0.1-0.4,0.2-0.8,0.7-0.9c0.1,0,0.2,0,0.2,0h7.2c0.2,0,0.3,0,0.4,0c1.2-0.1,2.1-1.2,2-2.3  c0,0,0,0,0,0v-3.1l0,0c0,0,0-0.1-0.1-0.1c0,0-0.1,0-0.1,0.1c-0.3,0.7-0.9,1.3-1.6,1.7c-0.8,0.4-1.6,0.6-2.5,0.6h-1.4  c-1.8,0.1-3.6-0.5-4.9-1.7c-1.2-1.4-1.8-3.2-1.7-5V92c-0.1-1.8,0.5-3.7,1.8-5c1.4-1.2,3.3-1.9,5.1-1.7h9.7c0.6,0,0.9,0.3,0.9,0.9  v20.3C269.2,108.2,268.6,110,267.3,111.3z M263.8,90.2c0-0.3-0.2-0.5-0.5-0.5h-4c-0.1,0-0.1,0-0.2,0c-1.3,0.1-2.2,1.1-2.2,2.4l0,0  v6.1l0,0c0,1.1,0.6,2.1,1.7,2.3c0.3,0,0.5,0.1,0.8,0.1h1.6c1.9,0,2.9-1,2.9-3.1V90.2z M286.8,111.4c-1.4,1.2-3.2,1.8-5.1,1.7h-8.1  c-0.2,0-0.5,0-0.7-0.2c-0.1-0.2-0.2-0.4-0.2-0.6v-2.8c-0.1-0.4,0.2-0.8,0.7-0.9c0.1,0,0.2,0,0.2,0h7.2c0.2,0,0.3,0,0.4,0  c1.2-0.1,2.1-1.2,2-2.3c0,0,0,0,0,0v-3.1l0,0c0,0,0-0.1-0.1-0.1c0,0-0.1,0-0.1,0.1c-0.3,0.7-0.9,1.3-1.6,1.7  c-0.8,0.4-1.6,0.6-2.5,0.6h-1.4c-1.8,0.1-3.6-0.5-4.9-1.7c-1.2-1.4-1.8-3.2-1.7-5V92c-0.1-1.8,0.5-3.7,1.8-5  c1.4-1.2,3.3-1.9,5.1-1.7h9.7c0.6,0,0.9,0.3,0.9,0.9v20.3C288.8,108.3,288.1,110,286.8,111.4z M283.3,90.3c0-0.3-0.2-0.5-0.5-0.5h-4  c-0.1,0-0.1,0-0.2,0c-1.3,0.1-2.2,1.1-2.2,2.4l0,0v6.1l0,0c0,1.1,0.6,2.1,1.7,2.3c0.3,0,0.5,0.1,0.8,0.1h1.6c1.9,0,2.9-1,2.9-3.1  V90.3z M245.2,100.6v-3.5h-3.5c-0.8,0-1.5,0.7-1.5,1.5v3.5h3.5C244.5,102.1,245.2,101.5,245.2,100.6z"/>
</svg>