<svg xmlns="http://www.w3.org/2000/svg" viewBox="0 0 400.39 77.86"><path d="M86.9 71.62c11.84-10.14 9.16-28.14-5.05-33.82-.52-.21-1.04-.4-1.68-.64 13.18-6.3 13.36-23.08 2.61-31.12-4.43-3.31-9.46-4.86-14.9-5C61.89.88 55.9.97 49.92.95h-1.21c2.98 2.35 5.29 4.77 3.71 8.8-.05.12-.03.26-.04.39l12.18.02c.39 0 .76-.15 1.04-.42l.97-.92.07.7c.08.77.73 1.36 1.5 1.36h3c.1.09.2.19.3.28a8.34 8.34 0 0 0 .01.5c-.01.09-.02.18-.04.27-.09.06-.18.13-.26.19l-4.43.06-.02.01c-.17 2.46-.17 2.45-2.75 2.47l-9.74.09v.49l10.8.02c3.55.06 6.53 1.32 7.88 4.83 1.67 4.33-.32 10.06-7.26 10.44-5 .01-15.77-.11-15.67-.02v-2.77s-5.67 3.77-7.35 7.32c-.17.37-.51 1.1-.54 2.09a5.16 5.16 0 0 0 .38 2.09c1.07 2.79 7.52 8.09 7.52 8.09v-2.5l17.16.09c1.41.02 2.87.25 4.2.69 4.22 1.4 6.31 5.01 5.86 9.81-.39 4.2-3.37 7.23-7.83 7.91-.98.15-1.98.23-2.98.23l-15.23.01h-1.34v-7.46c-.28.36-4.06 9.4-5.89 13.72-.34.8-.95 1.53-1.54 2.19-1.14 1.25.82 3.27.82 3.27s4.53 2.6 5.16 2.6h23.47c5.91-.73 10.97-2.75 15.07-6.27z" fill="#fdfdfd"/><g fill="#ce203d"><path d="M64.6 10.09c.4-.01.78-.18 1.07-.46l.89-.82.13.96c.11.54.59.91 1.14.91h3.52l.3.28.01.89-4.66.31-.64 2.12c.29.66-11.81.34-11.94.43v.32c-1.3 2.5-.83 5.03.1 7.67l-4.89 1.08-.54-1.89c-1.01 1.69-1.07 3.71-3.26 4.45-2.28.77-3.52-.99-5.32-1.6l-1.29 1.42c1.11.83.85 1.64.32 2.56-.84 1.46-1.51 3.01-2.37 4.46-.48.8-1.18 1.47-1.78 2.2l-.34-.22.17 3.13c.02.28.11.55.24.8l6.97 12.4c.84 1.54.81 3.24.13 4.89l-4.73 11.49c-.66 1.66-1.32 3.26-2.75 4.46-.25.21-.29.91-.15 1.27.7 1.79 2.51 1.79 3.99 2.24 1.02.31 1.51.75 1.19 1.82H26.83c.23-1.09.43-2.19.7-3.27l2.18-8.78c.58-2.7 1.03-5.41 2.68-7.75.63-.89 1.06-1.92 1.43-2.59-1.16-1.33-2.24-2.37-3.1-3.58-1.33-1.86-2.49-3.84-3.75-5.75-.59-.9-1.44-.85-1.88.13l-2.67 6.05c-1.44 3.12-2.54 6.4-4.8 9.12-2.75 3.33-5.19 6.92-8 10.2-1.63 1.9-1.99 3.92-1.78 6.22-2.39 0-4.78-.06-7.16.03-.82.03-.64-.38-.65-.81.69-1.12 1.57-2.17 2.03-3.38.46-1.24.28-2.71.77-3.94 1.39-3.53 3.06-6.96 4.44-10.49a11.51 11.51 0 0 1 3.91-5.19c.58-.44.96-1.1 1.06-1.83.43-3.14.7-6.31 1.08-9.45.04-.36.49-.97.72-.95.99.07 1.21-.53 1.49-1.26.57-1.48 1-3.1 1.94-4.33.75-.98 1.29-1.96 1.76-3.08.47-1.13.31-1.85-.84-2.36-.54-.24-1.04-.52-.72-1.37.9-2.43 1.66-4.9 2.57-7.32.14-.39.8-.87 1.17-.83 1.18.13 1.53-.53 1.97-1.41 1.22-2.47 2.41-4.97 3.88-7.29 1.12-1.76 2.84-2.86 5.14-2.79.5.02 1.02-.51 1.55-.81-.62-.54-1.14-.77-1.28-1.15-1.3-3.38.65-6.76 4.36-7.65l2.95.2c.91.34 1.84.65 2.59 1.21 1.03.77 1.74 1.96 2.58 2.98.1.13.08.38.2.47 1.85 1.45.3 2.94.21 4.47h-1.23l-.12.36c.34.1.68.28 1.02.29l7.13.07c.23.11 9.64.14 12.24.04z"/><path d="M71.13 12.12l.52-.25-4.66.3z"/></g><path d="M162.32 38.82c-.13-16.7 13.56-28.83 27.34-30.23 9.32-.95 17.9.74 25.2 6.88 9.74 8.18 13.35 18.73 10.19 30.91-3.12 12.07-11.42 19.62-23.65 22.16-12.17 2.53-22.95-.46-31.52-9.85-5.01-5.51-7.55-12.29-7.56-19.87zm50.71.01c.01-10.55-8.19-18.76-18.76-18.79-10.62-.03-18.91 8.2-18.93 18.78-.02 10.46 8.29 18.78 18.79 18.82 10.59.03 18.89-8.24 18.9-18.81zM107.07 9.66l28.33.06c6.31.17 11.54 2.92 15.09 8.3 2.71 4.11 3.34 8.71 2.94 13.53-.38 4.56-1.97 8.58-5.38 11.72-1.32 1.22-2.89 2.17-4.42 3.3l11.96 21.4c-.4.04-.67.09-.94.09-3.95.01-7.89-.03-11.84.03-.84.01-1.2-.31-1.56-.99L132 50.03c-.49-.93-1.07-1.22-2.1-1.2-3.38.07-6.76.03-10.25.03v19.13h-12.58V9.66zm12.56 27.48l13.54-.02c.68 0 1.38-.17 2.04-.37 3.62-1.09 5.79-4.59 5.3-8.47-.52-4.09-3.33-6.86-7.26-6.94-4.38-.09-8.76-.03-13.14-.03-.16 0-.31.07-.47.11l-.01 15.72zm268.75 9.46l12.01 21.48h-3.49c-3.12 0-6.25-.03-9.37.02-.75.01-1.13-.24-1.48-.89l-9.46-17.41c-.38-.71-.79-.95-1.59-.94l-10.64.02v19.14h-12.52V9.73c.05-.04.12-.12.19-.12l27.72.1c11.65.35 19.42 9.37 18.53 20.96-.37 4.82-1.76 9.17-5.4 12.53-1.35 1.24-2.94 2.23-4.5 3.4zm-24-9.66c4.99 0 9.93.27 14.83-.09 3.77-.27 6.25-3.92 6.09-7.95-.17-4.1-2.96-7.37-6.81-7.51-4.63-.17-9.27-.04-13.91-.03-.06 0-.13.1-.19.15l-.01 15.43zm-23.93 19.43v11.6h-44.34V9.64h43.45v11.65h-30.89V32.5h24.21v11.35h-24.22v12.52h31.79zm-52.68-46.8l-21.79 24.24 23.41 34.17-1.07.09c-4.12.01-8.24-.02-12.36.02-.86.01-1.38-.23-1.89-.97l-15.52-22.69c-.29-.43-.59-.85-.97-1.39-1.94 2.03-3.77 4.1-5.77 5.99-1.35 1.28-1.89 2.64-1.84 4.53.14 4.79.05 9.59.05 14.45h-12.47V9.62h12.43v24.9c.41-.37.66-.55.87-.79l21.08-23.32c.32-.35.81-.8 1.22-.8l14.62-.04z" fill="#fdfdfd"/></svg>