<svg xmlns:xlink="http://www.w3.org/1999/xlink" xmlns="http://www.w3.org/2000/svg" width="300" height="41" viewBox="0 0 300 41" fill="none">
<path d="M52 0.203613H91.24V20.2036L84.6249 25.6708L92 40.2036H74.4349L68.8332 29.1576V40.2036H52V0.203613ZM68.8332 11.3054V18.2231H78.038V11.3054H68.8332Z" fill="#CD412B"/>
<path d="M118.869 0.203613H136V40.2036H96V0.203613H113.159V29.1018H118.869V0.203613Z" fill="#CD412B"/>
<path d="M140 0.203613H180V11.3054H157.159V14.6527H180V40.2036H140V29.1018H162.869V25.7545H140V0.203613Z" fill="#CD412B"/>
<path d="M184 0.203613H224V11.3054H212.58V40.2036H195.42V11.3054H184V0.203613Z" fill="#CD412B"/>
<path d="M228 0.203613H247.368V29.1018H268V40.2036H228V0.203613Z" fill="#CD412B"/>
<path d="M284.45 0.203613H300L288.114 25.7545V40.2036H271.886V25.7545L260 0.203613H275.55L280 10.3012L284.45 0.203613Z" fill="#CD412B"/>
<path fill-rule="evenodd" clip-rule="evenodd" d="M40 0.203613H0V40.2036H40V0.203613ZM33.2041 6.35512H6.27965V34.0521H17.8297V26.4036L21.6733 34.0521H33.7256L28.6652 23.9893L33.2041 20.2036V6.35512ZM17.8297 18.8323V14.0423H24.1456V18.8323H17.8297Z" fill="white"/>
</svg>