<svg xmlns:xlink="http://www.w3.org/1999/xlink" xmlns="http://www.w3.org/2000/svg" viewBox="0 0 104.19 21.98" width="200"  height="42"><defs><style>.cls-1{fill:#ab2c2c;}.cls-2{fill:#f8f8f8;}</style></defs><title>Asset 3</title><g id="Layer_2" data-name="Layer 2"><g id="Layer_1-2" data-name="Layer 1"><path class="cls-1" d="M6.6,15.39H0V10.77H6.6a1.25,1.25,0,0,0,.93-.39,1.3,1.3,0,0,0,0-1.86,1.28,1.28,0,0,0-.93-.38H0V3.52H7.26A4.83,4.83,0,0,1,11,5.26a6.14,6.14,0,0,1,1.54,4.19,6.13,6.13,0,0,1-1.1,3.62,6.13,6.13,0,0,1,1.11,3.64V22H7.92V16.71A1.33,1.33,0,0,0,6.6,15.39Z"/><path class="cls-1" d="M13.68,16.05V3.52H18.3V16.05a1.27,1.27,0,0,0,.39.93,1.3,1.3,0,0,0,.93.38h2.63V3.52h4.62V22H19.62a5.94,5.94,0,0,1-5.94-5.93Z"/><path class="cls-1" d="M28.25,3.52h4.62V4.84A7,7,0,0,0,35.37,10l3.19,3a5.07,5.07,0,0,1,1.52,3.71A5.26,5.26,0,0,1,34.8,22H27.59V17.36H34.8a.61.61,0,0,0,.47-.19.67.67,0,0,0,0-.91l-2.42-2.32q-4.62-4.23-4.62-9.1Z"/><path class="cls-1" d="M40.67,3.52H53.85V8.14H40.67Zm0,12.53V10.11h4.62v5.94a1.3,1.3,0,0,0,1.31,1.31h7.25V22H46.6a5.94,5.94,0,0,1-5.93-5.93Z"/><path class="cls-2" d="M69.54,10.74a7.35,7.35,0,0,1,1.21,4.17,7.32,7.32,0,0,1-1.84,5A5.73,5.73,0,0,1,64.47,22H55.83v-5.5h7.85a1.57,1.57,0,0,0,1.57-1.57,1.49,1.49,0,0,0-.46-1.1,1.52,1.52,0,0,0-1.11-.47H55.82V7.85h8.24a1.15,1.15,0,0,0,.84-.35,1.12,1.12,0,0,0,.34-.83,1.13,1.13,0,0,0-.34-.83,1.15,1.15,0,0,0-.84-.35H55.83V0h9A5.37,5.37,0,0,1,69,2a6.91,6.91,0,0,1,1.73,4.72A7,7,0,0,1,69.54,10.74Z"/><path class="cls-2" d="M87,0V5.49H72.1V0ZM77.59,16.48H87V22H72.1V7.85H87v5.49H77.59Z"/><path class="cls-2" d="M88.49,0h15.7V5.49H88.49Zm0,14.91V7.85H94v7.06A1.55,1.55,0,0,0,94.44,16a1.51,1.51,0,0,0,1.11.46h8.64V22l-8.64,0v0a6.8,6.8,0,0,1-5-2.07A6.83,6.83,0,0,1,88.49,14.91Z"/></g></g></svg>