<svg xmlns="http://www.w3.org/2000/svg" xmlns:xlink="http://www.w3.org/1999/xlink" version="1.1" id="Layer_1" x="0px" y="0px" viewBox="0 0 1000 241.84" style="enable-background:new 0 0 1000 241.84;" xml:space="preserve" width="1000"  height="241.84">
<style type="text/css">
	.st0{fill:url(#SVGID_1_);}
	.st1{fill:#F4F4F4;}
</style>
<g>
	<linearGradient id="SVGID_1_" gradientUnits="userSpaceOnUse" x1="-15.682" y1="265.689" x2="288.1311" y2="-38.1241">
		<stop offset="0" style="stop-color:#4776E6"/>
		<stop offset="1" style="stop-color:#8E54E9"/>
	</linearGradient>
	<path class="st0" d="M7.63,234.53l32.63-45.18c0.94-1.3,2.51-2.08,4.19-2.08l85.11,0c1.68,0,3.25-0.78,4.19-2.08l45.34-62.78   c1.8-2.49-0.12-5.85-3.35-5.85l-75.34,0c-3.23,0-5.15-3.35-3.35-5.85l33.69-46.65c0.94-1.3,2.51-2.08,4.19-2.08l79.27,0.02   c1.68,0,3.25,0.78,4.19,2.08l38.94,53.9c1.14,1.58,1.14,3.65,0,5.23l-84.17,116.55c-0.94,1.3-2.51,2.08-4.19,2.08l-157.13-0.01   C7.78,241.83,5.37,237.64,7.63,234.53z M43.98,179.84l79.27,0.02c1.68,0,3.26-0.78,4.19-2.08l33.69-46.65   c1.8-2.49-0.12-5.85-3.35-5.85l-75.34,0c-3.23,0-5.15-3.35-3.35-5.85l45.34-62.78c0.94-1.3,2.51-2.08,4.19-2.08l85.11,0   c1.68,0,3.25-0.78,4.19-2.08l32.63-45.18c2.25-3.12-0.15-7.31-4.19-7.31L89.22,0c-1.68,0-3.25,0.78-4.19,2.08L0.86,118.63   c-1.14,1.58-1.14,3.65,0,5.23l38.94,53.9C40.73,179.06,42.3,179.84,43.98,179.84z"/>
	<g>
		<path class="st1" d="M314.45,174.01c-3.83-3.83-5.11-8.08-0.85-12.34l4.9-5.75c3.83-4.04,8.09-5.11,12.35-1.06    c8.73,9.79,23.83,15.75,35.75,15.75c15.32,0,24.9-6.6,24.9-16.18c0-13.83-15.54-15.53-34.27-21.92    c-17.66-5.74-40.44-15.75-40.44-40.86c0-23.41,20.65-39.8,50.44-39.8c19.15,0,34.69,6.6,45.34,16.39    c4.04,3.4,5.74,7.66,1.48,12.14l-4.9,5.74c-3.61,3.83-7.66,4.9-12.13,1.06c-7.45-6.6-17.03-11.92-29.37-11.92    c-12.56,0-21.49,5.96-21.49,14.69c0,10.43,11.28,14.48,23.41,18.52c23.41,7.88,51.29,14.69,51.29,45.76    c0,25.97-23.2,41.07-52.57,41.07C346.81,195.29,326.59,187.63,314.45,174.01z"/>
		<path class="st1" d="M536,192.74h-16.82c-5.32,0-8.51-2.56-12.13-7.88l-26.61-35.97l-10.22,11.07v24.48c0,5.11-2.77,8.3-7.87,8.3    h-12.13c-5.11,0-8.09-3.19-8.09-8.3V51.41c0-4.9,2.77-7.02,8.09-8.3l11.49-2.13c5.74-1.27,8.51,2.35,8.51,7.88v85.34l36.19-41.07    c4.26-5.11,7.02-7.88,12.35-7.88h15.74c4.9,0,7.88,3.62,4.05,8.31l-37.03,40.65l38.53,50.24    C543.88,189.12,540.9,192.74,536,192.74z"/>
		<path class="st1" d="M554.09,54.18c0-10,8.09-18.31,18.31-18.31c10,0,18.3,8.31,18.3,18.31c0,10.22-8.3,18.31-18.3,18.31    C562.17,72.49,554.09,64.4,554.09,54.18z M558.13,184.44v-91.1c0-5.11,2.98-8.09,8.09-8.09h12.35c5.11,0,7.87,2.98,7.87,8.09v91.1    c0,5.11-2.77,8.3-7.87,8.3h-12.35C561.11,192.74,558.13,189.55,558.13,184.44z"/>
		<path class="st1" d="M716.9,129.1v55.34c0,5.11-2.77,8.3-7.88,8.3h-12.34c-5.11,0-8.09-3.19-8.09-8.3v-53.21    c0-14.05-8.52-23.41-22.35-23.41c-13.84,0-23.2,9.36-23.2,23.41v53.21c0,5.11-2.77,8.3-7.87,8.3h-12.35    c-5.11,0-8.08-3.19-8.08-8.3v-91.1c0-5.11,2.98-8.09,8.08-8.09h8.09c5.11,0,8.09,2.98,8.09,8.09v7.24    c7.02-10.22,18.3-17.03,34.05-17.03C699.45,83.55,716.9,101.86,716.9,129.1z"/>
		<path class="st1" d="M738.8,179.33c-3.83-3.61-4.9-7.23-0.42-11.92l3.61-4.04c4.05-4.47,7.88-4.05,11.92-0.64    c7.23,6.38,16.6,10.86,26.82,10.86c9.15,0,15.11-4.05,15.11-10.22c0-8.3-8.94-11.28-18.52-15.11    c-17.45-5.96-35.97-12.56-35.97-32.99c0-19.37,15.96-31.72,40.44-31.72c13.62,0,27.88,4.69,36.19,12.56    c3.83,3.41,4.9,6.81,0.42,12.14l-2.98,3.83c-3.19,3.61-7.45,4.26-11.7,1.06c-7.02-5.75-13.41-8.31-21.93-8.31    c-8.3,0-13.4,3.62-13.4,8.94c0,6.81,9.36,9.57,21.92,14.47c17.88,7.24,32.57,14.9,32.57,34.69c0,20.22-17.03,32.57-41.93,32.57    C764.34,195.51,747.74,188.91,738.8,179.33z"/>
		<path class="st1" d="M845.01,184.44V51.41c0-4.9,2.77-7.02,8.08-8.3l11.71-2.34c5.74-1.27,8.52,2.56,8.52,8.09v135.58    c0,5.11-2.77,8.3-7.88,8.3h-12.35C847.98,192.74,845.01,189.55,845.01,184.44z"/>
		<path class="st1" d="M999.31,93.34l-48.95,112.59c-9.15,21.28-21.5,27.24-36.19,27.24c-6.17,0-11.91-1.27-16.17-3.4    c-2.77-1.49-5.75-3.62-4.26-8.31l2.34-8.3c1.28-4.04,4.05-5.53,9.36-3.61c2.13,0.85,4.9,1.48,7.45,1.48c4.9,0,9.36-1.48,13.19-10    l7.24-15.96l-41.29-91.74c-2.13-4.68,0.85-8.09,5.96-8.09h13.83c5.32,0,8.09,2.98,10,8.09l25.33,64.07l25.32-64.07    c1.92-5.11,4.69-8.09,9.79-8.09h11.07C998.45,85.25,1001.43,88.66,999.31,93.34z"/>
	</g>
</g>
</svg>