<svg xmlns="http://www.w3.org/2000/svg" xmlns:xlink="http://www.w3.org/1999/xlink" width="1093.88" height="132.84"><defs><path id="a" d="M231.77 4.23h-45.79l-33.95 40.93V4.23h-36.21v124.39h36.21V93.95l8.38-9.64 31.22 44.31h43.12l-49.24-70.55z"/></defs><clipPath id="b"><use xlink:href="#a" overflow="visible"/></clipPath><linearGradient id="c" gradientUnits="userSpaceOnUse" x1="-412.863" y1="1026.422" x2="-411.863" y2="1026.422" gradientTransform="scale(311.6061 -311.6061) rotate(.279 210257.14 85214.991)"><stop offset="0" stop-color="#2ede33"/><stop offset="1" stop-color="#39ba14"/></linearGradient><path clip-path="url(#b)" fill="url(#c)" d="M115.21 4.23l119.54-.58.61 124.97-119.54.58z"/><defs><path id="d" d="M244.43 4.23h36.21v124.39h-36.21z"/></defs><clipPath id="e"><use xlink:href="#d" overflow="visible"/></clipPath><linearGradient id="f" gradientUnits="userSpaceOnUse" x1="-412.863" y1="1026.422" x2="-411.863" y2="1026.422" gradientTransform="scale(311.6061 -311.6061) rotate(.279 210257.427 85214.995)"><stop offset="0" stop-color="#2ede33"/><stop offset="1" stop-color="#39ba14"/></linearGradient><path clip-path="url(#e)" fill="url(#f)" d="M243.82 4.23l36.82-.18.61 124.57-36.82.18z"/><defs><path id="g" d="M374.77 4.23V65.5L339.13 4.23h-38.6v124.39h34.03V66.08l37.36 62.54h36.71V4.23z"/></defs><clipPath id="h"><use xlink:href="#g" overflow="visible"/></clipPath><linearGradient id="i" gradientUnits="userSpaceOnUse" x1="-412.863" y1="1026.422" x2="-411.863" y2="1026.422" gradientTransform="scale(311.6061 -311.6061) rotate(.279 210257.715 85214.995)"><stop offset="0" stop-color="#2ede33"/><stop offset="1" stop-color="#39ba14"/></linearGradient><path clip-path="url(#h)" fill="url(#i)" d="M299.92 4.23l108.71-.53.61 124.92-108.71.53z"/><defs><path id="j" d="M.4 12.13v58.35c14.57 7.45 31.06 11.65 48.54 11.65v-15.7L23.81 41.3l25.12-25.12v15.7c17.48 0 33.96 4.2 48.54 11.65v-31.4C82.9 4.68 66.41.47 48.93.47 31.46.47 14.97 4.68.4 12.13"/></defs><clipPath id="k"><use xlink:href="#j" overflow="visible"/></clipPath><linearGradient id="l" gradientUnits="userSpaceOnUse" x1="-412.863" y1="1026.422" x2="-411.863" y2="1026.422" gradientTransform="scale(311.6061 -311.6061) rotate(.279 210240.22 85214.95)"><stop offset="0" stop-color="#2ede33"/><stop offset="1" stop-color="#39ba14"/></linearGradient><path clip-path="url(#k)" fill="url(#l)" d="M0 .48L97.47 0l.4 82.12L.4 82.6z"/><defs><path id="m" d="M48.93 66.42l25.12 25.12-25.12 25.12v-15.69c-17.48 0-33.97-4.19-48.54-11.65v31.4c14.57 7.45 31.06 11.65 48.54 11.65s33.96-4.2 48.54-11.65V62.37C82.9 54.92 66.41 50.72 48.93 50.72v15.7z"/></defs><clipPath id="n"><use xlink:href="#m" overflow="visible"/></clipPath><linearGradient id="o" gradientUnits="userSpaceOnUse" x1="-412.863" y1="1026.422" x2="-411.863" y2="1026.422" gradientTransform="scale(311.6061 -311.6061) rotate(.279 210273.258 85215.034)"><stop offset="0" stop-color="#2ede33"/><stop offset="1" stop-color="#39ba14"/></linearGradient><path clip-path="url(#n)" fill="url(#o)" d="M0 50.72l97.47-.47.4 82.12-97.47.47z"/><path d="M464.62 32.98c4.52-6.17 10.85-9.16 19.34-9.16 7.24 0 12.77 1.76 16.44 5.22 3.69 3.49 6.03 9.36 6.96 17.44l.15 1.35h23.48l-.17-1.67c-1.33-13.26-6.17-23.67-14.37-30.96-8.2-7.28-19.13-10.97-32.48-10.97-9.92 0-18.8 2.4-26.39 7.13-7.6 4.73-13.52 11.56-17.57 20.28-4.02 8.65-6.06 18.78-6.06 30.09v11.05c.16 11.04 2.26 20.89 6.23 29.26 4 8.45 9.77 15.07 17.16 19.66 7.38 4.59 16.01 6.92 25.67 6.92 13.78 0 25-3.69 33.36-10.96 8.38-7.29 13.24-17.55 14.47-30.49l.16-1.66h-23.45l-.17 1.33c-1.03 8.02-3.45 13.79-7.21 17.15-3.75 3.35-9.52 5.05-17.16 5.05-8.36 0-14.52-3.08-18.82-9.4-4.37-6.42-6.59-15.97-6.59-28.38V60.79c.08-12.22 2.45-21.58 7.02-27.81m113-27.13L531.85 127h24.61l9.57-27.5h43.59l9.65 27.5h24.69L598.13 5.85h-20.51zm-4.76 74.06l14.98-42.87 14.98 42.87h-29.96zm146.93-14.17c-5.66-3.54-13.24-6.74-22.52-9.5-8.98-2.66-15.49-5.43-19.33-8.21-3.62-2.61-5.38-5.75-5.38-9.6 0-4.69 1.63-8.22 4.97-10.8 3.41-2.64 8.35-3.98 14.68-3.98 6.77 0 12.01 1.63 15.57 4.84 3.57 3.22 5.3 7.58 5.3 13.35v1.52h23.48v-1.52c0-7.08-1.94-13.63-5.77-19.45-3.82-5.81-9.13-10.34-15.79-13.48-6.61-3.11-14.22-4.69-22.63-4.69-12.68 0-23.16 3.22-31.16 9.58-8.1 6.44-12.21 14.76-12.21 24.72 0 11.38 5.67 20.71 16.86 27.73 5.71 3.57 13.48 6.85 23.08 9.74 9.3 2.8 15.78 5.58 19.26 8.27 3.29 2.53 4.89 6.07 4.89 10.8 0 4.32-1.58 7.68-4.83 10.29-3.3 2.66-8.4 4.01-15.15 4.01-7.87 0-13.96-1.74-18.09-5.17-4.11-3.41-6.1-8.12-6.1-14.41v-1.52h-23.56v1.52c0 7.69 2.1 14.54 6.25 20.35 4.12 5.77 9.95 10.35 17.33 13.61 7.33 3.23 15.46 4.87 24.18 4.87 13.21 0 23.85-3.04 31.63-9.04 7.9-6.09 11.91-14.39 11.91-24.69 0-6.29-1.38-11.88-4.09-16.61-2.73-4.7-7.02-8.92-12.78-12.53m103.93-10.73h-49.77V5.85h-23.56V127h23.56V74.59h49.77V127h23.48V5.85h-23.48zM866.6 5.85h23.48V127H866.6zm66.19 68.42h48.51V55.01h-48.51V25.43h56.14V5.85h-79.7V127h80.26v-19.43h-56.7zm135.16 1.7c6.33-2.93 11.39-7.01 15.06-12.14 3.98-5.57 6-12.55 6-20.73 0-12-3.92-21.33-11.66-27.72-7.66-6.32-18.6-9.52-32.52-9.52h-43.05V127h23.56V81.57h20.44l23.68 45.42h24.42v-2.96l-25.93-48.06zm-7.84-18.83c-3.59 3.22-8.71 4.85-15.21 4.85h-19.57V25.43h20.12c6.71.1 11.78 1.76 15.07 4.93 3.27 3.15 4.93 7.72 4.93 13.59 0 5.66-1.75 9.97-5.34 13.19" fill="#fff"/></svg>