<svg xmlns="http://www.w3.org/2000/svg" xmlns:xlink="http://www.w3.org/1999/xlink" version="1.1" id="Layer_1" x="0px" y="0px" viewBox="0 0 334.1 50" style="enable-background:new 0 0 334.1 50;" xml:space="preserve" width="334.1"  height="50">
<style type="text/css">
	.st0{fill:url(#SVGID_1_);}
	.st1{fill:#FFFFFF;}
</style>
<g>
	<g>
		<linearGradient id="SVGID_1_" gradientUnits="userSpaceOnUse" x1="32.6113" y1="44.9343" x2="32.6113" y2="3.7375">
			<stop offset="0" style="stop-color:#4BD180"/>
			<stop offset="0.9593" style="stop-color:#34FD84"/>
			<stop offset="1" style="stop-color:#33FF84"/>
		</linearGradient>
		<path class="st0" d="M50.6,50c-0.2,0-0.3,0-0.5-0.1c-5.4-2.7-11.5-4.1-17.5-4.1c-6,0-12.1,1.4-17.5,4.1C14.9,50,14.8,50,14.6,50    c-0.4,0-0.8-0.2-1-0.6L0.1,22.2C0,21.9,0,21.6,0.1,21.3c0.1-0.3,0.3-0.5,0.6-0.6l12.6-6.2v14.3c0,1.9,1.4,3.6,3.3,3.8l0.1,0V1.3    C16.6,0.6,17.2,0,18,0h29.3c0.7,0,1.3,0.6,1.3,1.3v31.3l0.1,0c1.9-0.3,3.3-1.9,3.3-3.8V14.5l12.6,6.2c0.3,0.1,0.5,0.4,0.6,0.6    c0.1,0.3,0.1,0.6-0.1,0.8L51.6,49.4C51.4,49.8,51.1,50,50.6,50L50.6,50z M31,38.5c0.3,0.7,0.9,1.1,1.6,1.1s1.3-0.4,1.6-1.1l6-19.3    h3.4c0.3,0,0.5-0.2,0.7-0.4c0.1-0.3,0.1-0.6-0.1-0.8L32.6,5.7L21.1,18c-0.2,0.2-0.2,0.5-0.1,0.8c0.1,0.3,0.4,0.4,0.7,0.4H25    L31,38.5z"/>
	</g>
	<g>
		<path class="st1" d="M82.3,35.5c0,0,3.4,3.2,10,3.2c6.1,0,8.8-2.3,8.8-5.7c0-3.1-2-4.7-9.3-6.7c-8.1-2.3-11.6-4.7-11.6-9.7    c0-5.6,4.7-8.9,12.3-8.9c8.1,0,11.7,3.2,11.7,3.2l-2.1,3.2c0,0-3.4-2.7-9.6-2.7c-4.8,0-8.4,1.8-8.4,5.3c0,2.7,2.2,4.1,9.4,6.1    c8.9,2.4,11.5,5.4,11.5,10.3c0,5.4-3.8,9.4-12.7,9.4c-8.4,0-12.2-3.9-12.2-3.9L82.3,35.5z"/>
		<path class="st1" d="M110.6,22.4v-4.7l3.8-1v5.8h7.5v3.1h-7.5v8.1c0,3.6,1.4,5.1,4.3,5.1c1.4,0,2.7-0.8,2.7-0.8l1.3,2.7    c0,0-1.7,1.4-4.5,1.4c-4.9,0-7.6-2.8-7.6-8.3v-8.2V22.4z"/>
		<path class="st1" d="M143.1,39.7c0,0-2.4,2.2-7.2,2.2c-6.5,0-10.8-4.2-10.8-10c0-5.8,4.1-10.1,10-10.1c6,0,9.4,4.2,9.4,9.6v1.3    l-15.7,0c0.4,4,3.4,6.1,7.1,6.1c3.7,0,5.8-1.7,5.8-1.7L143.1,39.7z M129,29.9l11.7,0c-0.5-2.8-2.6-4.9-5.7-4.9    C132,25,129.7,26.7,129,29.9z"/>
		<path class="st1" d="M156.6,29.9c3.5,0,5.4,1.1,6.1,1.6h0.3v-1c0-3.4-1.8-5.3-6.4-5.3c-3.5,0-5.6,1.6-5.6,1.6l-1.4-2.9    c0,0,2.3-1.9,7.7-1.9c6.8,0,9.4,3.8,9.4,9v10.6H164l-0.4-2.3h-0.2c-0.5,0.7-2.4,2.7-7.3,2.7c-5.7,0-8.2-2.8-8.2-6.2    C147.8,32.6,150.6,29.9,156.6,29.9z M156.8,39.2c3.6,0,6.1-2.2,6.1-3.5c0-1.9-2.5-3.2-6.1-3.2c-3.2,0-5.1,1.3-5.1,3.3    C151.7,37.7,153.3,39.2,156.8,39.2z"/>
		<path class="st1" d="M191.9,41.6h-3.8V30.5c0-3-1.9-5.3-5.5-5.3c-3.9,0-5.8,2.8-5.8,4.9v11.5H173V22.4h2.7l0.4,2.8h0.2    c1.6-2.2,3.7-3.2,7.1-3.2c3.4,0,6,1.3,7.4,3.5h0.2c1.4-2.1,3.7-3.5,7.6-3.5c5.4,0,8.5,3.5,8.5,8.7v10.9h-3.8V31.2    c0-3.4-1.8-6-5.5-6c-4,0-5.8,2.9-5.8,5.2V41.6z"/>
		<path class="st1" d="M214.3,41.6V9.4l3.9-1V38h19.4v3.6H214.3z"/>
		<path class="st1" d="M257.1,39.7c0,0-2.4,2.2-7.2,2.2c-6.5,0-10.8-4.2-10.8-10c0-5.8,4.1-10.1,10-10.1c6,0,9.4,4.2,9.4,9.6v1.3    l-15.7,0c0.4,4,3.4,6.1,7.1,6.1c3.7,0,5.8-1.7,5.8-1.7L257.1,39.7z M243.1,29.9l11.7,0c-0.5-2.8-2.6-4.9-5.7-4.9    S243.7,26.7,243.1,29.9z"/>
		<path class="st1" d="M272.4,41.6h-2.7l-9.4-19.2h4.3l6,13.2c0.2,0.4,0.3,1,0.3,1.4h0.2c0-0.4,0.2-0.9,0.4-1.4l6-13.2h4.2    L272.4,41.6z"/>
		<path class="st1" d="M301.5,39.7c0,0-2.4,2.2-7.2,2.2c-6.5,0-10.8-4.2-10.8-10c0-5.8,4.1-10.1,10-10.1c6,0,9.4,4.2,9.4,9.6v1.3    h-15.7c0.4,4,3.4,6.1,7.1,6.1c3.7,0,5.8-1.7,5.8-1.7L301.5,39.7z M287.4,29.8h11.7c-0.5-2.8-2.6-4.9-5.7-4.9    S288.1,26.7,287.4,29.8z"/>
		<path class="st1" d="M308.2,9.4l3.8-1v33.2h-3.8V9.4z"/>
		<path class="st1" d="M318.7,37c0,0,2.9,1.9,7,1.9c3.2,0,5-0.9,5-2.5c0-4-13.2-2-13.2-8.9c0-3.1,2.5-5.5,8.1-5.5    c5.3,0,8.1,1.6,8.1,1.6l-1.4,3.1c0,0-2.2-1.6-6.3-1.6c-3,0-4.9,0.6-4.9,2.4c0,3.8,13.2,1.6,13.2,8.8c0,3.1-2.5,5.8-8.6,5.8    c-5.9,0-8.6-2.3-8.6-2.3L318.7,37z"/>
	</g>
</g>
</svg>